<svg xmlns="http://www.w3.org/2000/svg" width="23.978" height="22" viewBox="0 0 23.978 22">
    <g fill="none">
        <path d="M13.989 25l-1.738-1.583C6.076 17.819 2 14.114 2 9.594A6.523 6.523 0 0 1 8.594 3a7.21 7.21 0 0 1 5.4 2.494A7.21 7.21 0 0 1 19.384 3a6.523 6.523 0 0 1 6.594 6.594c0 4.52-4.076 8.225-10.251 13.823z" transform="translate(-2 -3)"/>
        <path fill="#b6b6b6" d="M13.99 22.295l.394-.36c5.777-5.238 9.594-8.7 9.594-12.341 0-1.256-.47-2.417-1.325-3.271C21.798 5.47 20.638 5 19.384 5c-1.462 0-2.912.672-3.877 1.796l-1.518 1.769-1.518-1.769C11.506 5.672 10.057 5 8.594 5 7.34 5 6.18 5.47 5.326 6.323 4.47 7.177 4 8.338 4 9.594c0 3.642 3.817 7.103 9.597 12.344l.392.357m0 2.705l-1.738-1.583C6.076 17.82 2 14.114 2 9.594 2 5.889 4.901 3 8.594 3c2.086 0 4.088.971 5.395 2.494C15.296 3.97 17.3 3 19.384 3c3.693 0 6.594 2.89 6.594 6.594 0 4.52-4.076 8.225-10.25 13.823L13.989 25z" transform="translate(-2 -3)"/>
    </g>
</svg>
