<svg id="Component_105_1" data-name="Component 105 – 1" xmlns="http://www.w3.org/2000/svg" width="33.548" height="25.036" viewBox="0 0 33.548 25.036" fill="#A4A4A4">
  <rect id="Rectangle_449" data-name="Rectangle 449" width="2" height="8.081" rx="1" transform="translate(6 14.036)" fill="#A4A4A4"/>
  <rect id="Rectangle_450" data-name="Rectangle 450" width="2" height="8.081" rx="1" transform="translate(3 19.036) rotate(-90)" fill="#A4A4A4"/>
  <g id="Component_104_1" data-name="Component 104 – 1">
    <g id="Ellipse_176" data-name="Ellipse 176" transform="translate(0 11.036)" fill="none" stroke="#A4A4A4" stroke-width="2">
      <circle cx="7" cy="7" r="7" stroke="none"/>
      <circle cx="7" cy="7" r="6" fill="none"/>
    </g>
    <path id="Path_1996" data-name="Path 1996" d="M23.832,1.739H20.661V.716A.7.7,0,0,0,19.945,0H4.6a.7.7,0,0,0-.716.716V1.739H.716A.7.7,0,0,0,0,2.455a15.651,15.651,0,0,0,2.352,8.592c1.534,2.25,3.478,3.58,5.728,3.682a8.9,8.9,0,0,0,1.534,1.33v3.171H8.387a2.708,2.708,0,0,0-2.659,2.659v1.227h0a.716.716,0,0,0,0,1.432H18.82a.716.716,0,1,0,0-1.432h0V21.888a2.708,2.708,0,0,0-2.659-2.659H14.933V16.058a8.9,8.9,0,0,0,1.534-1.33A7.6,7.6,0,0,0,22.2,11.046a15.409,15.409,0,0,0,2.352-8.592A.7.7,0,0,0,23.832,1.739ZM3.58,10.228A14.342,14.342,0,0,1,1.432,3.171H3.887a24.1,24.1,0,0,0,2.25,8.694c.2.409.409.716.614,1.125A6.625,6.625,0,0,1,3.58,10.228Zm17.388,0A7.225,7.225,0,0,1,17.8,12.99a11.156,11.156,0,0,0,.614-1.125,24.676,24.676,0,0,0,2.25-8.694h2.455A14.017,14.017,0,0,1,20.968,10.228Z" transform="translate(9)" fill="#A4A4A4"/>
  </g>
</svg>
