<svg xmlns="http://www.w3.org/2000/svg" width="50.568" height="50.568" viewBox="0 0 50.568 50.568">
    <defs>
        <style>
            .cls-2{fill:#2fffc7}
        </style>
    </defs>
    <g id="employee" opacity="0.8">
        <path id="Path_2170" d="M10.37 151a10.365 10.365 0 0 0-7.049 17.97 8.19 8.19 0 0 1 4.794-3.77 4.444 4.444 0 1 1 4.51 0 8.19 8.19 0 0 1 4.794 3.772A10.365 10.365 0 0 0 10.37 151z" class="cls-2" data-name="Path 2170" transform="translate(0 -136.086)"/>
        <path id="Path_2171" d="M63.022 321.479a5.194 5.194 0 0 0-4.6 2.825 10.355 10.355 0 0 0 9.2 0 5.194 5.194 0 0 0-4.6-2.825z" class="cls-2" data-name="Path 2171" transform="translate(-52.652 -289.728)"/>
        <circle id="Ellipse_229" cx="1.5" cy="1.5" r="1.5" class="cls-2" data-name="Ellipse 229" transform="translate(8.568 23.568)"/>
        <path id="Path_2172" d="M305.322 17.97a8.19 8.19 0 0 1 4.794-3.772 4.444 4.444 0 1 1 4.51 0 8.19 8.19 0 0 1 4.794 3.772 10.371 10.371 0 1 0-14.1 0z" class="cls-2" data-name="Path 2172" transform="translate(-272.173)"/>
        <path id="Path_2173" d="M360.422 173.3a10.354 10.354 0 0 0 9.2 0 5.158 5.158 0 0 0-9.2 0z" class="cls-2" data-name="Path 2173" transform="translate(-324.824 -153.641)"/>
        <circle id="Ellipse_230" cx="1.5" cy="1.5" r="1.5" class="cls-2" data-name="Ellipse 230" transform="translate(38.568 8.568)"/>
        <path id="Path_2174" d="M312.37 302a10.365 10.365 0 0 0-7.049 17.97 8.19 8.19 0 0 1 4.794-3.772 4.444 4.444 0 1 1 4.51 0 8.19 8.19 0 0 1 4.794 3.772A10.365 10.365 0 0 0 312.37 302z" class="cls-2" data-name="Path 2174" transform="translate(-272.173 -272.173)"/>
        <path id="Path_2175" d="M365.022 472.478a5.194 5.194 0 0 0-4.6 2.825 10.354 10.354 0 0 0 9.2 0 5.194 5.194 0 0 0-4.6-2.825z" class="cls-2" data-name="Path 2175" transform="translate(-324.824 -425.813)"/>
        <circle id="Ellipse_231" cx="1.5" cy="1.5" r="1.5" class="cls-2" data-name="Ellipse 231" transform="translate(38.568 38.568)"/>
        <path id="Path_2176" d="M213.64 143.24a13.342 13.342 0 0 1 1.485 2.564l5.818-3.359a13.239 13.239 0 0 1-1.093-2.79z" class="cls-2" data-name="Path 2176" transform="translate(-192.54 -125.862)"/>
        <path id="Path_2177" d="M213.64 312.65l6.21 3.585a13.242 13.242 0 0 1 1.093-2.79l-5.818-3.359a13.335 13.335 0 0 1-1.485 2.564z" class="cls-2" data-name="Path 2177" transform="translate(-192.54 -279.46)"/>
    </g>
</svg>
