<svg xmlns="http://www.w3.org/2000/svg" width="50" height="50" viewBox="0 0 50 50">
    <g id="information" opacity="0.7">
        <g id="Group_3780" data-name="Group 3780">
            <path id="Path_2169" d="M25 0a25 25 0 1 0 25 25A25.027 25.027 0 0 0 25 0zm-1.042 41.667a3.125 3.125 0 1 1 3.125-3.125 3.128 3.128 0 0 1-3.125 3.125zm3.125-12.708v3.333a1.041 1.041 0 0 1-1.042 1.042h-4.166a1.041 1.041 0 0 1-1.042-1.042v-5.209A4.172 4.172 0 0 1 25 22.917a4.167 4.167 0 1 0-4.167-4.167v1.042a1.041 1.041 0 0 1-1.042 1.042h-4.166a1.041 1.041 0 0 1-1.042-1.042V18.75a10.417 10.417 0 1 1 12.5 10.209z" data-name="Path 2169"/>
        </g>
    </g>
</svg>
