<svg xmlns="http://www.w3.org/2000/svg" id="instagram" width="30.556" height="30.556" viewBox="0 0 30.556 30.556">
    <defs>
        <style>
            .cls-1{fill:#02ffbb}
        </style>
    </defs>
    <g id="Group_3766" data-name="Group 3766">
        <g id="Group_3765" data-name="Group 3765">
            <path id="Path_2154" d="M21.008 0H9.549A9.55 9.55 0 0 0 0 9.549v11.459a9.55 9.55 0 0 0 9.549 9.549h11.459a9.55 9.55 0 0 0 9.549-9.549V9.549A9.55 9.55 0 0 0 21.008 0zm6.684 21.008a6.692 6.692 0 0 1-6.684 6.684H9.549a6.692 6.692 0 0 1-6.684-6.684V9.549a6.692 6.692 0 0 1 6.684-6.684h11.459a6.692 6.692 0 0 1 6.684 6.684z" class="cls-1" data-name="Path 2154"/>
        </g>
    </g>
    <g id="Group_3768" data-name="Group 3768" transform="translate(7.639 7.639)">
        <g id="Group_3767" data-name="Group 3767">
            <path id="Path_2155" d="M135.639 128a7.639 7.639 0 1 0 7.639 7.639 7.639 7.639 0 0 0-7.639-7.639zm0 12.413a4.774 4.774 0 1 1 4.774-4.774 4.781 4.781 0 0 1-4.774 4.774z" class="cls-1" data-name="Path 2155" transform="translate(-128 -128)"/>
        </g>
    </g>
    <g id="Group_3770" data-name="Group 3770" transform="translate(22.472 6.048)">
        <g id="Group_3769" data-name="Group 3769">
            <circle id="Ellipse_228" cx="1.018" cy="1.018" r="1.018" class="cls-1" data-name="Ellipse 228"/>
        </g>
    </g>
</svg>
