<svg xmlns="http://www.w3.org/2000/svg" id="twitter" width="41.086" height="29.366" viewBox="0 0 41.086 29.366">
    <g id="Group_3771" data-name="Group 3771">
        <path id="Path_2156" fill="#02ffbb" d="M41.076 82.974a1.2 1.2 0 0 0-.921-1.022l-4.117-.959a10.5 10.5 0 0 0-2.411-5.175 9.105 9.105 0 0 0-7.068-2.792c-2.8 0-4.912.9-6.264 2.669-1.706 2.236-1.713 5.315-1.482 7.3-3.475-1.027-9.018-3.227-10.1-6.18a1.2 1.2 0 0 0-2.235-.065 13.455 13.455 0 0 0 .082 10.962c.218.5.452.966.688 1.392l-5.685-1.777A1.2 1.2 0 0 0 .007 88.6a16.9 16.9 0 0 0 2.66 6.9c2.1 3.144 6.258 6.891 14.147 6.891a19.356 19.356 0 0 0 10.744-3.044 20.371 20.371 0 0 0 5.983-6.1 17.394 17.394 0 0 0 2.605-6.828l4.291-2.229a1.2 1.2 0 0 0 .639-1.216zm-6.6 1.6a1.2 1.2 0 0 0-.642.938 14.889 14.889 0 0 1-2.317 6.429 16.845 16.845 0 0 1-14.706 8.042c-5.441 0-9.509-1.932-12.092-5.743a14.9 14.9 0 0 1-1.887-3.995l7.107 2.221a1.2 1.2 0 0 0 1.215-1.995c-.049-.05-4.372-4.52-3.189-10.471a17.981 17.981 0 0 0 6.2 3.9 39.75 39.75 0 0 0 5.894 1.916 1.2 1.2 0 0 0 1.426-1.49c-.012-.046-1.222-4.638.719-7.173.885-1.156 2.307-1.717 4.346-1.717 4.16 0 6.514 2.119 7.2 6.478.012.075.022.149.032.224v.012a1.2 1.2 0 0 0 .919 1.007l1.729.4z" data-name="Path 2156" transform="translate(0 -73.026)"/>
    </g>
</svg>
