<svg xmlns="http://www.w3.org/2000/svg" width="101.233" height="61.162" viewBox="0 0 101.233 61.162">
  <path id="prefix__account-group" d="M50.617,9.039A14.764,14.764,0,1,1,35.853,23.8,14.764,14.764,0,0,1,50.617,9.039M21.089,19.584a12.452,12.452,0,0,1,6.457,1.772,23.352,23.352,0,0,0,4.766,16.7A12.648,12.648,0,1,1,21.091,19.584m59.056,0A12.654,12.654,0,1,1,68.923,38.06a23.352,23.352,0,0,0,4.766-16.7,12.452,12.452,0,0,1,6.454-1.772M23.2,62.82C23.2,54.088,35.474,47,50.617,47S78.034,54.089,78.034,62.82V70.2H23.2V62.82M0,70.2V63.874c0-5.863,7.973-10.8,18.77-12.232A17.059,17.059,0,0,0,14.764,62.82V70.2H0m101.233,0H86.469V62.82a17.059,17.059,0,0,0-4.007-11.178c10.8,1.434,18.77,6.369,18.77,12.232Z" transform="translate(0 -9.039)" fill="#02ffbb"/>
</svg>
