<svg xmlns="http://www.w3.org/2000/svg" id="information" width="27.505" height="27.505" viewBox="0 0 27.505 27.505">
    <g id="Group_3780" data-name="Group 3780">
        <path id="Path_2169" fill="#02ffbb" d="M13.753 0a13.753 13.753 0 1 0 13.752 13.753A13.768 13.768 0 0 0 13.753 0zm-.573 22.921A1.719 1.719 0 1 1 14.9 21.2a1.721 1.721 0 0 1-1.72 1.721zm1.72-6.991v1.833a.573.573 0 0 1-.573.573h-2.294a.573.573 0 0 1-.573-.573V14.9a2.3 2.3 0 0 1 2.292-2.292 2.292 2.292 0 1 0-2.292-2.292v.573a.573.573 0 0 1-.573.573H8.6a.573.573 0 0 1-.573-.573v-.573A5.73 5.73 0 1 1 14.9 15.93z" data-name="Path 2169"/>
    </g>
</svg>
