<svg xmlns="http://www.w3.org/2000/svg" width="7.276" height="6.951" viewBox="0 0 7.276 6.951">
    <path id="prefix__Path_1888" fill="#ffd100" d="M-362.109 112.416l.647 1.991a.309.309 0 0 0 .294.214h2.094a.309.309 0 0 1 .182.559l-1.694 1.231a.309.309 0 0 0-.112.346l.647 1.991a.309.309 0 0 1-.476.346l-1.694-1.231a.309.309 0 0 0-.363 0l-1.694 1.231a.309.309 0 0 1-.476-.346l.647-1.991a.309.309 0 0 0-.112-.346l-1.694-1.231a.309.309 0 0 1 .182-.559h2.094a.309.309 0 0 0 .294-.214l.647-1.991a.309.309 0 0 1 .587 0z" data-name="Path 1888" transform="translate(366.042 -112.203)"/>
</svg>
