<svg xmlns="http://www.w3.org/2000/svg" width="24" height="24" viewBox="0 0 24 24">
    <g>
        <g fill="#1c1c1c" stroke="#01e8af" opacity="0.31" transform="translate(-331 -397) translate(331 397)">
            <circle cx="12" cy="12" r="12" stroke="none"/>
            <circle cx="12" cy="12" r="11.5" fill="none"/>
        </g>
        <g>
            <path fill="#01e8af" d="M11.748.887h-1.563V.365A.351.351 0 0 0 9.832 0H2.269a.351.351 0 0 0-.353.365v.522H.353A.351.351 0 0 0 0 1.252a8.194 8.194 0 0 0 1.16 4.383 3.654 3.654 0 0 0 2.823 1.879 4.432 4.432 0 0 0 .756.678V9.81h-.605a1.359 1.359 0 0 0-1.311 1.357v.626a.365.365 0 0 0 0 .731h6.454a.365.365 0 0 0 0-.731v-.626A1.359 1.359 0 0 0 7.966 9.81h-.605V8.192a4.431 4.431 0 0 0 .756-.678 3.733 3.733 0 0 0 2.824-1.878A8.067 8.067 0 0 0 12.1 1.252a.351.351 0 0 0-.352-.365zM1.765 5.218a7.5 7.5 0 0 1-1.059-3.6h1.21a12.637 12.637 0 0 0 1.109 4.435c.1.209.2.365.3.574a3.3 3.3 0 0 1-1.56-1.409zm8.572 0a3.6 3.6 0 0 1-1.564 1.409 5.755 5.755 0 0 0 .3-.574 12.938 12.938 0 0 0 1.109-4.435H11.4a7.329 7.329 0 0 1-1.064 3.6z" transform="translate(-331 -397) translate(336.848 402.841)"/>
        </g>
    </g>
</svg>
