<svg id="Component_104_1" data-name="Component 104 – 1" xmlns="http://www.w3.org/2000/svg" width="23" height="23" viewBox="0 0 23 23">
  <circle id="Ellipse_208" data-name="Ellipse 208" cx="11.5" cy="11.5" r="11.5" fill="#fff" opacity="0.8"/>
  <path id="video-reload" d="M12.337,9.033V6.674A.637.637,0,0,0,11.663,6H3.574a.637.637,0,0,0-.674.674v6.741a.637.637,0,0,0,.674.674h8.089a.637.637,0,0,0,.674-.674V11.056l2.7,2.7V6.337ZM7.416,13.415v-.944A2.488,2.488,0,0,1,4.922,9.977a2.431,2.431,0,0,1,.4-1.348L5.8,9.1a1.866,1.866,0,0,0-.2.876,1.929,1.929,0,0,0,1.887,1.887v-.944L8.765,12.2ZM9.776,11.46,9.3,10.988a1.866,1.866,0,0,0,.2-.876A1.929,1.929,0,0,0,7.619,8.224v.944L6.338,7.887,7.619,6.674v.944a2.488,2.488,0,0,1,2.494,2.494A2.85,2.85,0,0,1,9.776,11.46Z" transform="translate(3.1 1)" fill="#2aa796"/>
</svg>
