<svg xmlns="http://www.w3.org/2000/svg" width="24" height="24" viewBox="0 0 24 24">
    <defs>
        <clipPath id="clip-path">
            <path id="Rectangle_726" d="M0 0H17.84V14.548H0z" class="cls-1"/>
        </clipPath>
        <style>
            .cls-1{fill:#02ffbb}
        </style>
    </defs>
    <g id="Group_4046" transform="translate(-93 -400)">
        <circle id="Ellipse_250" cx="12" cy="12" r="12" fill="#103247" opacity="0.5" transform="translate(93 400)"/>
        <g id="Group_4230" transform="translate(95.847 404.943)">
            <g id="Group_4228" clip-path="url(#clip-path)">
                <path id="Path_2374" d="M18.136 1.287c0-.009-.012-.016-.016-.025a.432.432 0 0 0-.07-.106.382.382 0 0 0-.05-.033.416.416 0 0 0-.088-.059.317.317 0 0 0-.04-.009.446.446 0 0 0-.131-.025h-1.88V.424a.439.439 0 0 0-.032-.167c0-.008-.011-.015-.015-.023a.385.385 0 0 0-.072-.109C15.731.111 15.713.1 15.7.091a.453.453 0 0 0-.085-.057c-.015-.006-.035-.006-.05-.01A.439.439 0 0 0 15.44 0H6.345a.453.453 0 0 0-.167.032c-.01 0-.017.013-.025.017a.432.432 0 0 0-.106.07c-.013.013-.021.031-.033.045a.418.418 0 0 0-.058.089c-.005.011 0 .025-.009.038a.424.424 0 0 0-.025.133v.606h-1.88a.433.433 0 0 0-.047.009.461.461 0 0 0-.118.022.508.508 0 0 0-.067.039.65.65 0 0 0-.066.045c-.017.018-.029.042-.045.062a.544.544 0 0 0-.047.072.492.492 0 0 0-.011.053.4.4 0 0 0-.024.12A10.44 10.44 0 0 0 3.9 3.841l.71-.71a1.023 1.023 0 0 1-.025-.107 8.428 8.428 0 0 1-.12-1.144h1.456v.031a1.169 1.169 0 0 1 .669-.154 1.387 1.387 0 0 1 .973.429l2.938 2.939a1.407 1.407 0 0 1 0 1.984L9.454 8.157l2.418 2.424V13.3a1.978 1.978 0 0 1-.45 1.247h3.351a.424.424 0 0 0 0-.848v-.728-.023A1.6 1.6 0 0 0 13.2 11.4h-.728V9.516c.052-.031.1-.083.157-.12.1-.076.207-.152.306-.235.148-.136.3-.284.447-.433a4.5 4.5 0 0 0 1.873-.644 5.6 5.6 0 0 0 1.52-1.538l.008-.014a9.156 9.156 0 0 0 1.042-2.363 10.61 10.61 0 0 0 .345-2.716.442.442 0 0 0-.032-.167m-.824.658a8.25 8.25 0 0 1-.368 2.16 7.465 7.465 0 0 1-.883 1.93.264.264 0 0 1-.015.027l-.006.01a4.32 4.32 0 0 1-.857.982 3.221 3.221 0 0 1-1.016.645 6.554 6.554 0 0 0 .363-.667 14.49 14.49 0 0 0 .886-2.455 17.919 17.919 0 0 0 .444-2.652c0-.015 0-.031.005-.045h1.456c0 .022-.006.044-.007.065" class="cls-1" transform="translate(-.328)"/>
                <path id="Path_2375" d="M8.946 9.381h-.4L7.35 10.574h1.137l1.055 1.192H1.193l1.062-1.192h1.22L2.284 9.381h-.495L0 11.17v2.385a1.192 1.192 0 0 0 1.192 1.193h8.351a1.193 1.193 0 0 0 1.193-1.193V11.17l-1.79-1.79M5.4 9.321l-2.12-2.11 2.959-2.953L8.35 6.369M5.82 2.994l-3.8 3.8a.594.594 0 0 0 0 .84l2.952 2.94a.574.574 0 0 0 .811.029.22.22 0 0 0 .029-.029l3.793-3.78a.594.594 0 0 0 0-.84L6.656 3a.583.583 0 0 0-.823-.019z" class="cls-1" transform="translate(0 -.255)"/>
            </g>
        </g>
    </g>
</svg>
