<svg xmlns="http://www.w3.org/2000/svg" width="9.219" height="10.244" viewBox="0 0 9.219 10.244">
    <path fill="#fff" d="M10.683 7.633h-.348L9.31 8.658h.978l.907 1.024H4.024l.912-1.024h1.05L4.962 7.633h-.425L3 9.17v2.049a1.024 1.024 0 0 0 1.024 1.024h7.17a1.024 1.024 0 0 0 1.024-1.024V9.17l-1.535-1.537m-.513-2.586L7.635 7.582 5.817 5.769l2.54-2.535 1.813 1.813M8 2.148L4.736 5.41a.51.51 0 0 0 0 .722l2.536 2.526a.493.493 0 0 0 .722 0l3.257-3.248a.51.51 0 0 0 0-.722L8.716 2.153A.5.5 0 0 0 8 2.148z" transform="translate(-3 -1.999)"/>
</svg>
