<svg xmlns="http://www.w3.org/2000/svg" width="23" height="23" viewBox="0 0 23 23">
    <defs>
        <style>
            .prefix__cls-2{fill:#fff}
        </style>
    </defs>
    <g id="prefix__Group_3499" data-name="Group 3499" transform="translate(-91 -436)">
        <g id="prefix__Group_3495" data-name="Group 3495" transform="translate(-240 -36)">
            <g id="prefix__Group_3238" data-name="Group 3238">
                <g id="prefix__Group_3235" data-name="Group 3235" transform="translate(123)">
                    <g id="prefix__Group_3234" data-name="Group 3234" opacity="0.175" transform="translate(208.328 472.328)">
                        <circle id="prefix__Ellipse_159" cx="11.5" cy="11.5" r="11.5" class="prefix__cls-2" data-name="Ellipse 159" transform="translate(-.328 -.328)"/>
                    </g>
                </g>
            </g>
        </g>
        <path id="prefix__heart_1_" d="M8.829 15.531l-.99-.9C4.322 11.441 2 9.331 2 6.756A3.715 3.715 0 0 1 5.756 3a4.107 4.107 0 0 1 3.073 1.42A4.107 4.107 0 0 1 11.9 3a3.715 3.715 0 0 1 3.756 3.756c0 2.575-2.322 4.685-5.839 7.874z" class="prefix__cls-2" data-name="heart (1)" transform="translate(94.16 438.734)"/>
    </g>
</svg>
