<svg xmlns="http://www.w3.org/2000/svg" width="58.937" height="69" viewBox="0 0 58.937 69">
    <defs>
        <style>
            .cls-1{fill:#103247}
        </style>
    </defs>
    <g id="apple">
        <path id="Path_2166" d="M258.261 11.2A15.181 15.181 0 0 0 261.6 0a16.192 16.192 0 0 0-10.484 5.675c-2.286 2.782-4.166 6.913-3.433 10.928 4.017.125 8.172-2.286 10.578-5.403z" class="cls-1" data-name="Path 2166" transform="translate(-219.196)"/>
        <path id="Path_2167" d="M94.276 126.839c-3.532-4.429-8.5-7-13.183-7-6.188 0-8.806 2.963-13.106 2.963-4.433 0-7.8-2.954-13.153-2.954-5.257 0-10.854 3.213-14.4 8.707-4.99 7.737-4.136 22.283 3.95 34.672 2.894 4.433 6.758 9.418 11.812 9.462 4.5.043 5.766-2.885 11.859-2.915s7.249 2.954 11.739 2.907c5.059-.039 9.134-5.563 12.027-10a49.714 49.714 0 0 0 4.455-8.366c-11.703-4.452-13.576-21.089-2-27.476z" class="cls-1" data-name="Path 2167" transform="translate(-37.336 -103.69)"/>
    </g>
</svg>
