<svg xmlns="http://www.w3.org/2000/svg" id="playstore" width="66.843" height="75.062" viewBox="0 0 66.843 75.062">
    <defs>
        <style>
            .cls-1{fill:#103247}
        </style>
    </defs>
    <path id="Path_2162" d="M1.884 18.855A6.865 6.865 0 0 0 .5 23.021v61.2a6.88 6.88 0 0 0 1.2 3.913L35 53.4zm0 0" class="cls-1" data-name="Path 2162" transform="translate(-.5 -16.091)"/>
    <path id="Path_2163" d="M67.6 34.129l10.8-11.268L40.432.937a6.841 6.841 0 0 0-5.3-.681zm0 0" class="cls-1" data-name="Path 2163" transform="translate(-30.052)"/>
    <path id="Path_2164" d="M65.693 276.18L32.891 310.4a6.811 6.811 0 0 0 2.172.357 6.905 6.905 0 0 0 3.46-.938l38.247-22.086zm0 0" class="cls-1" data-name="Path 2164" transform="translate(-28.142 -235.69)"/>
    <path id="Path_2165" d="M300.219 177.8l-11.1-6.41-11.679 12.181 11.952 12.467 10.829-6.253a6.92 6.92 0 0 0 0-11.986zm0 0" class="cls-1" data-name="Path 2165" transform="translate(-236.837 -146.267)"/>
</svg>
