<svg xmlns="http://www.w3.org/2000/svg" width="105" height="105" viewBox="0 0 105 105">
  <g id="Group_3894" data-name="Group 3894" transform="translate(-128 -405)">
    <path id="Path_27" data-name="Path 27" d="M62.256,4.542H53.973V1.87A1.826,1.826,0,0,0,52.1,0H12.024a1.826,1.826,0,0,0-1.87,1.87V4.542H1.87A1.826,1.826,0,0,0,0,6.413c0,8.55,2.138,16.3,6.145,22.444,4.008,5.878,9.085,9.352,14.963,9.619a23.237,23.237,0,0,0,4.008,3.474v8.283H21.91a7.074,7.074,0,0,0-6.947,6.947v3.206h0a1.87,1.87,0,0,0,0,3.741h34.2a1.87,1.87,0,0,0,0-3.741h0V57.18a7.074,7.074,0,0,0-6.947-6.947H39.01V41.95a23.237,23.237,0,0,0,4.008-3.474c5.611-.267,10.955-3.741,14.963-9.619s6.145-13.894,6.145-22.444A1.826,1.826,0,0,0,62.256,4.542ZM9.352,26.72A37.466,37.466,0,0,1,3.741,8.283h6.413c.8,8.55,2.672,16.566,5.878,22.712.534,1.069,1.069,1.87,1.6,2.939A17.306,17.306,0,0,1,9.352,26.72Zm45.423,0c-2.4,3.474-5.344,6.145-8.283,7.214a29.144,29.144,0,0,0,1.6-2.939c3.206-6.413,5.077-14.161,5.878-22.712h6.413A36.618,36.618,0,0,1,54.775,26.72Z" transform="translate(148.421 426.964)" fill="none" stroke="#103146" stroke-width="2"/>
    <g id="Ellipse_241" data-name="Ellipse 241" transform="translate(128 405)" fill="none" stroke="#103146" stroke-width="2">
      <circle cx="52.5" cy="52.5" r="52.5" stroke="none"/>
      <circle cx="52.5" cy="52.5" r="51.5" fill="none"/>
    </g>
  </g>
</svg>
