<svg xmlns="http://www.w3.org/2000/svg" width="105" height="105" viewBox="0 0 105 105">
  <g id="Group_4258" data-name="Group 4258" transform="translate(-128 -514)">
    <g id="Group_4256" data-name="Group 4256" transform="translate(0 109)">
      <g id="Ellipse_241" data-name="Ellipse 241" transform="translate(128 405)" fill="none" stroke="#103146" stroke-width="2">
        <circle cx="52.5" cy="52.5" r="52.5" stroke="none"/>
        <circle cx="52.5" cy="52.5" r="51.5" fill="none"/>
      </g>
    </g>
    <g id="Union_91" data-name="Union 91" transform="translate(152 541.045)" fill="none">
      <path d="M2,51.418a2,2,0,0,1-2-2V46.391a2,2,0,0,1,2-2H16.671L3.458,31.182a3.858,3.858,0,0,1,0-5.447L27.977,1.126a3.744,3.744,0,0,1,5.389.038L52.418,20.288a3.858,3.858,0,0,1,0,5.448L33.772,44.392H54a2,2,0,0,1,2,2v3.026a2,2,0,0,1-2,2Z" stroke="none"/>
      <path d="M 53.99909973144531 49.41790008544922 L 53.99980163574219 49.41720199584961 L 53.99909973144531 46.3916015625 L 33.77198028564453 46.3916015625 L 28.94543075561523 46.3916015625 L 32.35737991333008 42.97777938842773 L 51.00104904174805 24.32382965087891 C 51.72199249267578 23.60029029846191 51.72199249267578 22.42300987243652 51.00091934204102 21.6993408203125 L 31.94882011413574 2.57524037361145 L 31.93095016479492 2.557300329208374 L 31.91353034973145 2.538910388946533 C 31.58440017700195 2.191360235214233 31.14175033569336 1.99996030330658 30.6671314239502 1.99996030330658 C 30.19089126586914 1.99996030330658 29.7386417388916 2.190740346908569 29.39333152770996 2.537490367889404 L 4.87497091293335 27.14674949645996 C 4.154480934143066 27.87026977539063 4.154480934143066 29.04753112792969 4.871780872344971 29.76785087585449 L 18.08545112609863 42.97714996337891 L 21.50102996826172 46.3916015625 L 16.67147064208984 46.3916015625 L 2.000000715255737 46.39139938354492 L 1.999800801277161 49.41790008544922 L 53.99909973144531 49.41790008544922 M 53.99909973144531 51.41790008544922 L 1.999800801277161 51.41790008544922 C 0.8955008387565613 51.41790008544922 8.178710686479462e-07 50.52239990234375 8.178710686479462e-07 49.41720199584961 L 8.178710686479462e-07 46.39139938354492 C 8.178710686479462e-07 45.28710174560547 0.8955008387565613 44.3916015625 1.999800801277161 44.3916015625 L 16.67147064208984 44.3916015625 L 3.45780086517334 31.18230056762695 C 1.957500815391541 29.67570114135742 1.957500815391541 27.24209976196289 3.45780086517334 25.73550033569336 L 27.97650146484375 1.125900387763977 C 28.72242736816406 0.3768428564071655 29.69643974304199 -4.353759868536144e-05 30.66713333129883 -4.353759868536144e-05 C 31.64999008178711 -4.353759868536144e-05 32.62944412231445 0.3862401247024536 33.36569976806641 1.163700342178345 L 52.41780090332031 20.28779983520508 C 53.91900253295898 21.79440116882324 53.91900253295898 24.22890090942383 52.41780090332031 25.73550033569336 L 33.77198028564453 44.3916015625 L 53.99909973144531 44.3916015625 C 55.10430145263672 44.3916015625 55.99980163574219 45.28710174560547 55.99980163574219 46.39139938354492 L 55.99980163574219 49.41720199584961 C 55.99980163574219 50.52239990234375 55.10430145263672 51.41790008544922 53.99909973144531 51.41790008544922 Z" stroke="none" fill="#103247"/>
    </g>
  </g>
</svg>
