<svg id="Component_105_1" data-name="Component 105 – 1" xmlns="http://www.w3.org/2000/svg" width="23" height="23" viewBox="0 0 23 23">
  <circle id="Ellipse_207" data-name="Ellipse 207" cx="11.5" cy="11.5" r="11.5" fill="#fff" opacity="0.8"/>
  <g id="icono_reto" data-name="icono reto" transform="translate(5.754 5.754)">
    <path id="Path_27" data-name="Path 27" d="M12.075.912H10.468V.375A.361.361,0,0,0,10.105,0H2.332a.361.361,0,0,0-.363.375V.912H.363A.361.361,0,0,0,0,1.287a8.422,8.422,0,0,0,1.192,4.5,3.755,3.755,0,0,0,2.9,1.931,4.555,4.555,0,0,0,.777.7v1.663H4.249A1.4,1.4,0,0,0,2.9,11.477v.644h0a.376.376,0,0,0,0,.751H9.535a.376.376,0,0,0,0-.751h0v-.644a1.4,1.4,0,0,0-1.347-1.394H7.566V8.42a4.555,4.555,0,0,0,.777-.7,3.837,3.837,0,0,0,2.9-1.931,8.291,8.291,0,0,0,1.192-4.5A.361.361,0,0,0,12.075.912ZM1.814,5.363a7.708,7.708,0,0,1-1.088-3.7H1.969a12.988,12.988,0,0,0,1.14,4.559c.1.215.207.375.311.59A3.391,3.391,0,0,1,1.814,5.363Zm8.81,0A3.7,3.7,0,0,1,9.017,6.811a5.915,5.915,0,0,0,.311-.59,13.3,13.3,0,0,0,1.14-4.559h1.244A7.533,7.533,0,0,1,10.624,5.363Z" transform="translate(0 0)" fill="#5ddcbe"/>
  </g>
</svg>
