<svg xmlns="http://www.w3.org/2000/svg" width="14.727" height="18" viewBox="0 0 14.727 18">
    <path id="prefix__cake-variant" d="M10.364 4.909A1.636 1.636 0 0 0 12 3.273a1.557 1.557 0 0 0-.237-.843L10.364 0l-1.4 2.43a1.557 1.557 0 0 0-.237.843 1.636 1.636 0 0 0 1.636 1.636m3.764 8.182l-.875-.884-.884.884a2.915 2.915 0 0 1-4 0l-.868-.884-.9.884a2.837 2.837 0 0 1-3.6.319v3.772a.818.818 0 0 0 .818.818h13.091a.818.818 0 0 0 .818-.818V13.41a2.837 2.837 0 0 1-3.6-.319m1.145-5.727h-4.09V5.727H9.545v1.637h-4.09A2.455 2.455 0 0 0 3 9.818v1.26a1.606 1.606 0 0 0 1.6 1.6 1.517 1.517 0 0 0 1.129-.466L7.5 10.473l1.726 1.743a1.641 1.641 0 0 0 2.266 0l1.735-1.743 1.759 1.743a1.543 1.543 0 0 0 1.129.466 1.613 1.613 0 0 0 1.612-1.6V9.818a2.455 2.455 0 0 0-2.454-2.454z" transform="translate(-3)" style="fill:#9fa0a4"/>
</svg>
