<svg xmlns="http://www.w3.org/2000/svg" width="18" height="13.5" viewBox="0 0 18 13.5">
    <path id="prefix__card-account-details-outline" d="M16.5 3h-15A1.556 1.556 0 0 0 0 4.5V15a1.556 1.556 0 0 0 1.5 1.5h15A1.556 1.556 0 0 0 18 15V4.5A1.556 1.556 0 0 0 16.5 3m0 12h-15V4.5h15V15m-6-1.5v-.937c0-1.245-2.505-1.875-3.75-1.875S3 11.318 3 12.563v.937h7.5M6.75 6a1.875 1.875 0 1 0 1.875 1.875A1.875 1.875 0 0 0 6.75 6m3.75 0v.75H15V6h-4.5m0 1.5v.75H15V7.5h-4.5m0 1.5v.75h3V9h-3" transform="translate(0 -3)" style="fill:#9fa0a4"/>
</svg>
