<svg xmlns="http://www.w3.org/2000/svg" width="18" height="17.999" viewBox="0 0 18 17.999">
    <defs>
        <style>
            .prefix__cls-1{fill:#9fa0a4}
        </style>
    </defs>
    <g id="prefix__woman" transform="translate(.009 -1.6)">
        <path id="prefix__Path_1767" d="M7.964 42.288a6.249 6.249 0 0 1-1.491-1.08 3.9 3.9 0 1 1 2.449-1.995 3.083 3.083 0 0 0 1.436.616 5.456 5.456 0 1 0-5.688 3.019v.836H3.11v1.559h1.559v2.338h1.559v-2.337h1.559v-1.559H6.228v-.838a5.421 5.421 0 0 0 1.736-.558z" class="prefix__cls-1" data-name="Path 1767" transform="translate(0 -27.983)"/>
        <path id="prefix__Path_1768" d="M68.378 2.7l-1.1-1.1-1.657 1.654-1.1-1.1-1.1 1.1 1.1 1.1-.59.59a5.464 5.464 0 0 0-5.792-.47 6.267 6.267 0 0 1 1.495 1.08 3.9 3.9 0 1 1-2.445 2 3.1 3.1 0 0 0-1.434-.615 5.456 5.456 0 1 0 9.275-.889l.591-.591 1.1 1.1 1.1-1.1-1.1-1.1z" class="prefix__cls-1" data-name="Path 1768" transform="translate(-50.386)"/>
    </g>
</svg>
