<svg xmlns="http://www.w3.org/2000/svg" width="16" height="15.41" viewBox="0 0 16 15.41">
    <path id="home" fill="#36efa5" d="M6.158 14.635v-3.973a.785.785 0 0 1 .771-.771h2.165a.785.785 0 0 1 .771.771v4a.785.785 0 0 0 .771.771h3.084a.785.785 0 0 0 .771-.771V8.824a.785.785 0 0 1 .771-.771.759.759 0 0 0 .5-1.334L8.53.225a.773.773 0 0 0-1.038 0L.288 6.718a.764.764 0 0 0 .5 1.334.785.785 0 0 1 .771.771v5.841a.785.785 0 0 0 .771.771h3.087a.786.786 0 0 0 .741-.8z" transform="translate(-.03 -.025)"/>
</svg>
