<svg xmlns="http://www.w3.org/2000/svg" width="90.329" height="87" viewBox="0 0 90.329 87">
  <path id="home" d="M34.629,82.506V60.076a4.432,4.432,0,0,1,4.352-4.352H51.2a4.432,4.432,0,0,1,4.352,4.352v22.6a4.432,4.432,0,0,0,4.352,4.352H77.313a4.431,4.431,0,0,0,4.352-4.352V49.7a4.432,4.432,0,0,1,4.352-4.352h0a4.283,4.283,0,0,0,2.846-7.532L48.02,1.155a4.362,4.362,0,0,0-5.859,0L1.487,37.813a4.315,4.315,0,0,0,2.846,7.532h0A4.432,4.432,0,0,1,8.684,49.7V82.673a4.431,4.431,0,0,0,4.352,4.352H30.445A4.439,4.439,0,0,0,34.629,82.506Z" transform="translate(-0.03 -0.025)" fill="#103247"/>
</svg>
