<svg xmlns="http://www.w3.org/2000/svg" width="77" height="78.75" viewBox="0 0 77 78.75">
  <g id="Component_107_7" data-name="Component 107 – 7" opacity="0.7">
    <g id="Group_3798" data-name="Group 3798">
      <g id="Rectangle_540" data-name="Rectangle 540" fill="#1c2438" stroke="#1c2438" stroke-width="1">
        <rect width="77" height="78.75" rx="18" stroke="none"/>
        <rect x="0.5" y="0.5" width="76" height="77.75" rx="17.5" fill="none"/>
      </g>
      <g id="Union_1" data-name="Union 1" transform="translate(21 22.75)" fill="#fafafa">
        <path d="M 19.93865013122559 33.5 L 16.81410980224609 33.5 L 16.81410980224609 20.41776084899902 L 16.81410980224609 18.91776084899902 L 15.31410980224609 18.91776084899902 L 1.5 18.91776084899902 L 1.5 16.08485984802246 L 15.31410980224609 16.08485984802246 L 16.81410980224609 16.08485984802246 L 16.81410980224609 14.58485984802246 L 16.81410980224609 1.5 L 19.93865013122559 1.5 L 19.93865013122559 14.58485984802246 L 19.93865013122559 16.08485984802246 L 21.43865013122559 16.08485984802246 L 35.25 16.08485984802246 L 35.25 18.91776084899902 L 21.43865013122559 18.91776084899902 L 19.93865013122559 18.91776084899902 L 19.93865013122559 20.41776084899902 L 19.93865013122559 33.5 Z" stroke="none"/>
        <path d="M 18.43865013122559 32 L 18.43865013122559 20.41776084899902 L 18.43865013122559 17.58485984802246 L 18.43865013122559 14.58485984802246 L 18.43865013122559 3 L 18.31410980224609 3 L 18.31410980224609 14.58485984802246 L 18.31410980224609 17.58485984802246 L 18.31410980224609 20.41776084899902 L 18.31410980224609 32 L 18.43865013122559 32 M 21.43865013122559 35 L 15.31410980224609 35 L 15.31410980224609 20.41776084899902 L 0 20.41776084899902 L 0 14.58485984802246 L 15.31410980224609 14.58485984802246 L 15.31410980224609 0 L 21.43865013122559 0 L 21.43865013122559 14.58485984802246 L 36.75 14.58485984802246 L 36.75 20.41776084899902 L 21.43865013122559 20.41776084899902 L 21.43865013122559 35 Z" stroke="none" fill="#fafafa"/>
      </g>
    </g>
  </g>
</svg>
