<?xml version="1.0" encoding="utf-8"?>
<!-- Generator: Adobe Illustrator 24.2.1, SVG Export Plug-In . SVG Version: 6.00 Build 0)  -->
<svg version="1.1" id="Layer_1" xmlns="http://www.w3.org/2000/svg" xmlns:xlink="http://www.w3.org/1999/xlink" x="0px" y="0px"
	 viewBox="0 0 2527 603" style="enable-background:new 0 0 2527 603;" xml:space="preserve">
<style type="text/css">
	.st0{fill:#02FFBB;}
</style>
<g id="Grupo_3395" transform="translate(-47.153 -137.563)">
	<g id="Grupo_2588" transform="translate(47.153 137.563)">
		<g id="Grupo_2583" transform="translate(0 0)">
			<path id="Trazado_1527" class="st0" d="M409.3,480.66c-34.76,25.99-76.98,40.06-120.38,40.13
				C170.08,517.53,76.26,418.76,79.11,299.9c-0.05-32.73,6.91-65.1,20.44-94.91c10-21.27,23.36-40.8,39.55-57.84
				c71.59-76.94,190.15-86.3,272.93-21.55l57.5-56.95c-113.01-98.3-283.6-89.26-385.6,20.41c-6.8,7.17-13.18,14.6-19.16,22.29
				l-0.43-0.51c-13.18,17.27-24.49,35.89-33.74,55.55c-15.71,32.87-25.6,68.22-29.23,104.48h0.99C1.48,280.53,1,290.17,1,300.02
				C1,467.09,130.13,603,288.83,603c66.23-0.15,130.23-23.98,180.44-67.17l-53.91-57.05C413.39,479.58,411.37,480.2,409.3,480.66z"
				/>
			<g id="Grupo_2582" transform="translate(5.724 6.49)">
				<path id="Trazado_1528" class="st0" d="M197.18,329.81l179.54-168.95V150.3H189.5v18.73h-56.18v65.63
					C133.41,276.37,158.61,313.92,197.18,329.81z M170.67,234.56v-28.08h19.28c1.08,28.81,5.95,57.36,14.46,84.91
					c-20.62-11.49-33.44-33.22-33.52-56.83H170.67z"/>
				<path id="Trazado_1529" class="st0" d="M395.46,219.57v15.01l0,0c-0.08,23.61-12.9,45.34-33.52,56.83
					c4.74-15.02,8.27-30.39,10.58-45.96L261.65,370.32c0.87,0.39,1.76,0.75,2.65,1.08v22.34c0,10.34-8.38,18.73-18.73,18.73
					c0,0,0,0,0,0c-20.68,0-37.45,16.77-37.45,37.45h149.78c0-20.68-16.77-37.45-37.45-37.45c-10.34,0-18.73-8.38-18.73-18.73
					c0,0,0,0,0,0v-22.22c16.35-7.1,30.02-19.2,39.07-34.56c52.29-5.67,91.93-49.79,91.99-102.38v-57.22L395.46,219.57z"/>
			</g>
		</g>
		<g id="Grupo_2587" transform="translate(6.187 3.163)">
			<g id="Grupo_2586">
				<g id="Grupo_2585">
					<g id="Grupo_2584">
						<path id="Trazado_1530" class="st0" d="M485.46,73.97c0.63,0.68,0.63,1.73,0,2.41L183.32,417.17l-0.65,0.7
							c-8.74,8.8-22.91,8.97-31.86,0.39c-8.8-8.42-9.1-22.38-0.67-31.18c0.1-0.1,0.19-0.2,0.29-0.3L483.01,73.95
							c0.72-0.68,1.84-0.68,2.55,0L485.46,73.97z"/>
					</g>
				</g>
			</g>
		</g>
	</g>
	<g id="Grupo_2589" transform="translate(74.699 144.54)">
		<path id="Trazado_1531" class="st0" d="M887.64,407.14c-28.06,26.94-65.81,41.4-104.69,40.08
			c-103.92,0-145.15-66.95-145.54-141.28c-3.53-76.24,55.41-140.91,131.64-144.45c4.63-0.21,9.27-0.2,13.9,0.06
			c37.63,0.03,73.66,15.18,100.01,42.03l-38.13,37.65c-16.98-15.17-39.13-23.25-61.89-22.58c-45.43-1.91-83.8,33.37-85.71,78.8
			c-0.12,2.95-0.09,5.91,0.1,8.85c-3.08,43.82,29.94,81.83,73.76,84.91c3.95,0.28,7.92,0.26,11.87-0.05
			c24.72-0.39,48.48-9.64,66.95-26.08L887.64,407.14z"/>
		<path id="Trazado_1532" class="st0" d="M1106.34,440.62V332.81h-121.8v107.81h-60.71V168.27h60.71v108.96h121.8V168.27h59.94
			v272.34H1106.34z"/>
		<path id="Trazado_1533" class="st0" d="M1420.03,393.5h-139.78l-19.86,46.71h-65.38l122.21-272.34h66.25l122.21,272.34h-65.82
			L1420.03,393.5z M1350.36,229.25l-47.09,110.53h93.8L1350.36,229.25z"/>
		<path id="Trazado_1534" class="st0" d="M1595.16,167.77v216.79h136.21v55.65h-196.92V167.87L1595.16,167.77z"/>
		<path id="Trazado_1535" class="st0" d="M1828.67,167.77v216.79h136.21v55.65h-196.92V167.87L1828.67,167.77z"/>
		<path id="Trazado_1536" class="st0" d="M2208.89,440.21h-207.43V167.86h201.98v55.58h-142.33v52.54h134.26v53.31h-134.26v54.88
			h147.88L2208.89,440.21z"/>
		<path id="Trazado_1537" class="st0" d="M2498.43,440.21h-67.29l-69.67-89.51h-43.98v89.51h-60.71V167.86h129.2
			c50.76-4.7,95.72,32.64,100.42,83.41c0.26,2.81,0.39,5.62,0.39,8.44c2.87,40.16-23.85,76.45-63.05,85.63l74.71,90.28
			L2498.43,440.21z M2317.46,219.92v79.39h69.29c20.85,1.25,38.76-14.63,40.01-35.48c0.05-0.89,0.08-1.78,0.07-2.67
			c0.69-22.1-16.67-40.57-38.77-41.25c-0.73-0.02-1.47-0.03-2.2-0.01L2317.46,219.92z"/>
	</g>
</g>
</svg>
