<svg xmlns="http://www.w3.org/2000/svg" width="16.618" height="16.618" viewBox="0 0 16.618 16.618">
  <g id="Group_4411" data-name="Group 4411" transform="translate(-226.691 -195.729)">
    <g id="Group_4375" data-name="Group 4375" transform="translate(28.691 -1)">
      <g id="Group_4376" data-name="Group 4376">
        <g id="Union_81" data-name="Union 81" transform="translate(198 196.729)" fill="#fc0">
          <path d="M 8.308706283569336 16.1229305267334 L 7.099618911743164 14.91376876831055 L 6.938899040222168 14.75303936004639 L 6.726698875427246 14.83448886871338 L 5.130606651306152 15.44712734222412 L 4.597818851470947 14.05905914306641 L 4.511619091033936 13.83447933197021 L 4.271059036254883 13.83447933197021 L 2.783438920974731 13.83447933197021 L 2.783438920974731 12.12460899353027 L 2.783438920974731 11.89730930328369 L 2.575788974761963 11.80486869812012 L 1.01362407207489 11.10939407348633 L 1.618798971176147 9.750199317932129 L 1.716639041900635 9.530459403991699 L 1.546548962593079 9.360359191894531 L 0.4949663877487183 8.308712005615234 L 1.704128980636597 7.099548816680908 L 1.86483895778656 6.938828945159912 L 1.783398985862732 6.726638793945313 L 1.17078959941864 5.130607128143311 L 2.55885910987854 4.597818851470947 L 2.783438920974731 4.511619091033936 L 2.783438920974731 4.271059036254883 L 2.783438920974731 2.783968925476074 L 4.493218898773193 2.783968925476074 L 4.720509052276611 2.783968925476074 L 4.81295919418335 2.576328992843628 L 5.508522987365723 1.014132976531982 L 6.867108821868896 1.618968963623047 L 7.086859226226807 1.716809034347534 L 7.256948947906494 1.546718955039978 L 8.30870532989502 0.4949704110622406 L 9.518069267272949 1.704259037971497 L 9.678789138793945 1.864959001541138 L 9.890969276428223 1.78351902961731 L 11.4873104095459 1.170789957046509 L 12.02029895782471 2.559389114379883 L 12.10649871826172 2.783968925476074 L 12.34705924987793 2.783968925476074 L 13.83447933197021 2.783968925476074 L 13.83447933197021 4.49354887008667 L 13.83447933197021 4.72084903717041 L 14.04212856292725 4.813289165496826 L 15.60376262664795 5.508524417877197 L 14.99885940551758 6.867098808288574 L 14.90100860595703 7.086859226226807 L 15.07111930847168 7.256948947906494 L 16.1229362487793 8.308700561523438 L 14.91363906860352 9.517989158630371 L 14.75292873382568 9.678709030151367 L 14.83436870574951 9.890898704528809 L 15.44712734222412 11.48730945587158 L 14.05905914306641 12.0200891494751 L 13.83447933197021 12.10628890991211 L 13.83447933197021 12.34684944152832 L 13.83447933197021 13.83447933197021 L 12.12392902374268 13.83447933197021 L 11.89663887023926 13.83447933197021 L 11.80418872833252 14.04211902618408 L 11.10886478424072 15.60378456115723 L 9.750279426574707 14.99894905090332 L 9.530529022216797 14.90110874176025 L 9.360439300537109 15.07119941711426 L 8.308706283569336 16.1229305267334 Z" stroke="none"/>
          <path d="M 8.308719635009766 15.62795829772949 L 9.112958908081055 14.8237190246582 L 9.453128814697266 14.48353862762451 L 9.89262866973877 14.67919921875 L 10.93148422241211 15.14169216156006 L 11.48444938659668 13.89975929260254 L 11.66934871673584 13.48447895050049 L 12.12392902374268 13.48447895050049 L 13.48447895050049 13.48447895050049 L 13.48447895050049 12.34684944152832 L 13.48447895050049 11.86573886871338 L 13.93363857269287 11.69333934783936 L 14.99495792388916 11.28597545623779 L 14.50761890411377 10.01631927490234 L 14.34471893310547 9.591938972473145 L 14.66615867614746 9.270499229431152 L 15.62795162200928 8.308712959289551 L 14.82363891601563 7.504448890686035 L 14.48342895507813 7.16425895690918 L 14.67911911010742 6.724729061126709 L 15.14164924621582 5.685916423797607 L 13.89977931976318 5.133038997650146 L 13.48447895050049 4.94814920425415 L 13.48447895050049 4.49354887008667 L 13.48447895050049 3.133969068527222 L 12.34705924987793 3.133969068527222 L 11.86594867706299 3.133969068527222 L 11.69354915618896 2.684808969497681 L 11.28597736358643 1.622958779335022 L 10.01638889312744 2.110269069671631 L 9.592019081115723 2.273159027099609 L 9.270588874816895 1.951748967170715 L 8.308712005615234 0.9899318218231201 L 7.504428863525391 1.794209003448486 L 7.16425895690918 2.134378910064697 L 6.724759101867676 1.938719034194946 L 5.685906410217285 1.476226806640625 L 5.132699012756348 2.718698978424072 L 4.947799205780029 3.133969068527222 L 4.493218898773193 3.133969068527222 L 3.133439064025879 3.133969068527222 L 3.133439064025879 4.271059036254883 L 3.133439064025879 4.752169132232666 L 2.684278964996338 4.924569129943848 L 1.622958064079285 5.331940174102783 L 2.110148906707764 6.601219177246094 L 2.273049116134644 7.025599002838135 L 1.951609015464783 7.347029209136963 L 0.9899287819862366 8.308709144592285 L 1.794049024581909 9.112878799438477 L 2.13421893119812 9.453068733215332 L 1.938539028167725 9.892559051513672 L 1.475732803344727 10.93200016021729 L 2.718138933181763 11.4851188659668 L 3.133439064025879 11.67000865936279 L 3.133439064025879 12.12460899353027 L 3.133439064025879 13.48447895050049 L 4.271059036254883 13.48447895050049 L 4.752169132232666 13.48447895050049 L 4.924569129943848 13.93363857269287 L 5.331939220428467 14.99495792388916 L 6.601278781890869 14.50773906707764 L 7.025679111480713 14.34483909606934 L 7.347108840942383 14.66628932952881 L 8.308719635009766 15.62795829772949 M 8.308698654174805 16.617919921875 L 6.852118968963623 15.1612491607666 L 4.929268836975098 15.8993091583252 L 4.271059036254883 14.18447875976563 L 2.433439016342163 14.18447875976563 L 2.433439016342163 12.12460899353027 L 0.5515190362930298 11.28677940368652 L 1.29905903339386 9.60783863067627 L -9.927367727868841e-07 8.308698654174805 L 1.456639051437378 6.852058887481689 L 0.7186090350151062 4.929268836975098 L 2.433439016342163 4.271059036254883 L 2.433439016342163 2.433969020843506 L 4.493218898773193 2.433969020843506 L 5.331139087677002 0.5520489811897278 L 7.009459018707275 1.299229025840759 L 8.308698654174805 -9.927367727868841e-07 L 9.765548706054688 1.456758975982666 L 11.68864917755127 0.7186090350151062 L 12.34705924987793 2.433969020843506 L 14.18447875976563 2.433969020843506 L 14.18447875976563 4.49354887008667 L 16.06586837768555 5.331139087677002 L 15.31859874725342 7.009459018707275 L 16.617919921875 8.308698654174805 L 15.16112899780273 9.76547908782959 L 15.8993091583252 11.68864917755127 L 14.18447875976563 12.34684944152832 L 14.18447875976563 14.18447875976563 L 12.12392902374268 14.18447875976563 L 11.2862491607666 16.06586837768555 L 9.607929229736328 15.31868934631348 L 8.308698654174805 16.617919921875 Z" stroke="none" fill="#fc0"/>
        </g>
      </g>
    </g>
    <g id="check_2_" data-name="check(2)" transform="translate(223.73 151.456)">
      <g id="Group_4374" data-name="Group 4374" transform="translate(8 50.096)">
        <path id="Path_2539" data-name="Path 2539" d="M6.465,51.176a.262.262,0,0,0-.37-.006l-.006.006L1.828,55.437.443,54.053a.262.262,0,0,0-.37.37l1.569,1.569a.262.262,0,0,0,.37,0l4.446-4.446A.262.262,0,0,0,6.465,51.176Z" transform="translate(0 -51.096)" fill="#36efa5" stroke="#fffcf2" stroke-width="1"/>
      </g>
    </g>
  </g>
</svg>
