<svg xmlns="http://www.w3.org/2000/svg" id="Group_2590" width="450.301" height="129.258" data-name="Group 2590" viewBox="0 0 450.301 129.258">
    <defs>
        <style>
            .cls-1{fill:#02ffbb}
        </style>
    </defs>
    <g id="Group_2588" data-name="Group 2588">
        <g id="Group_2583" data-name="Group 2583">
            <path id="Path_1527" d="M237.384 220.6a47.186 47.186 0 1 1 .616-76.184l12.987-12.216a65.09 65.09 0 0 0-87.081 4.381 64.138 64.138 0 0 0-4.327 4.78l-.1-.107a66.993 66.993 0 0 0-14.2 34.33h.221c-.2 2.057-.3 4.141-.3 6.247a64.95 64.95 0 0 0 105.746 50.587q-6.086-6.122-12.173-12.239a8.9 8.9 0 0 1-1.389.421z" class="cls-1" data-name="Path 1527" transform="translate(-145.201 -117.571)"/>
            <g id="Group_2582" data-name="Group 2582" transform="translate(31.154 31.813)">
                <path id="Path_1528" d="M284.421 285.534l40.546-38.149V245h-42.281v4.228H270v14.8a23.285 23.285 0 0 0 14.421 21.506zm-5.965-21.506v-6.342h4.328a74.386 74.386 0 0 0 3.242 19.176 14.751 14.751 0 0 1-7.57-12.834z" class="cls-1" data-name="Path 1528" transform="translate(-270 -245)"/>
                <path id="Path_1529" d="M380.032 278.994v3.385a14.751 14.751 0 0 1-7.571 12.833 67.137 67.137 0 0 0 2.389-10.379l-25.014 28.2.6.25v5.043a4.228 4.228 0 0 1-4.228 4.228 8.456 8.456 0 0 0-8.456 8.456h33.826a8.456 8.456 0 0 0-8.456-8.456 4.228 4.228 0 0 1-4.228-4.228v-5.017a19.059 19.059 0 0 0 8.821-7.805 23.285 23.285 0 0 0 20.776-23.115v-12.928z" class="cls-1" data-name="Path 1529" transform="translate(-320.837 -263.355)"/>
            </g>
        </g>
        <g id="Group_2587" data-name="Group 2587" transform="translate(33.672 17.216)">
            <g id="Group_2586" data-name="Group 2586">
                <g id="Group_2585" data-name="Group 2585">
                    <g id="Group_2584" data-name="Group 2584">
                        <path id="Path_1530" d="M357.183 186.657a.4.4 0 0 1 .019.561l-68.25 76.94c-.044.047-.1.11-.149.156a5.13 5.13 0 0 1-7.192.086 4.982 4.982 0 0 1-.086-7.106l75.082-70.642a.417.417 0 0 1 .577 0z" class="cls-1" data-name="Path 1530" transform="translate(-280.079 -186.536)"/>
                    </g>
                </g>
            </g>
        </g>
    </g>
    <g id="Group_2589" data-name="Group 2589" transform="translate(110.317 37.74)">
        <path id="Path_1531" d="M48.643 761.957C43.52 767 36.911 769.28 29.517 769.28c-18.983 0-26.519-12.229-26.59-25.808-.071-12.869 8.318-26.377 26.59-26.377a25.629 25.629 0 0 1 18.272 7.678l-6.968 6.9a16.252 16.252 0 0 0-11.3-4.123c-11.3 0-15.712 8.746-15.641 15.993s3.981 15.493 15.641 15.493a18.847 18.847 0 0 0 12.235-4.754z" class="cls-1" data-name="Path 1531" transform="translate(-2.927 -717.095)"/>
        <path id="Path_1532" d="M151.092 769.514v-19.695h-22.253v19.694h-11.09v-49.767h11.09v19.906h22.253v-19.906h10.952v49.768z" class="cls-1" data-name="Path 1532" transform="translate(-65.42 -718.539)"/>
        <path id="Path_1533" d="M267.576 760.826h-25.524l-3.623 8.531h-11.945l22.323-49.767h12.086l22.325 49.767H271.2zm-12.726-30l-8.605 20.193h17.134z" class="cls-1" data-name="Path 1533" transform="translate(-124.601 -718.454)"/>
        <path id="Path_1534" d="M373.615 719.59v39.6H398.5v10.167h-35.98V719.59z" class="cls-1" data-name="Path 1534" transform="translate(-198.642 -718.454)"/>
        <path id="Path_1535" d="M467.214 719.59v39.6H492.1v10.167h-35.977V719.59z" class="cls-1" data-name="Path 1535" transform="translate(-249.587 -718.454)"/>
        <path id="Path_1536" d="M587.619 769.357h-37.894V719.59h36.9v10.167H560.6v9.6h24.528v9.743H560.6v10.025h27.02z" class="cls-1" data-name="Path 1536" transform="translate(-300.533 -718.454)"/>
        <path id="Path_1537" d="M696.215 769.357h-12.3l-12.727-16.352h-8.034v16.352h-11.09V719.59h23.6c12.016 0 18.415 8.034 18.415 16.779-.071 6.47-1.99 12.229-11.519 15.642l13.65 16.493zm-33.061-40.24v14.5h12.656a6.91 6.91 0 0 0 7.323-6.968c-.071-3.412-2.275-7.537-7.466-7.537z" class="cls-1" data-name="Path 1537" transform="translate(-356.232 -718.454)"/>
    </g>
</svg>
