<svg  id="Group_2588" data-name="Group 2588" xmlns="http://www.w3.org/2000/svg" width="56.505" height="65.859" viewBox="0 0 56.505 65.859">
  <g id="Group_2583" data-name="Group 2583" >
    <path id="Path_1527" data-name="Path 1527" d="M192.17,170.068a24.042,24.042,0,1,1,.315-38.819l6.616-6.225a33.164,33.164,0,0,0-44.37,2.232,32.683,32.683,0,0,0-2.2,2.436l-.05-.055a34.134,34.134,0,0,0-7.235,17.492h.113c-.1,1.048-.154,2.11-.154,3.183a33.093,33.093,0,0,0,53.879,25.775q-3.1-3.119-6.2-6.236A4.533,4.533,0,0,1,192.17,170.068Z" transform="translate(-145.201 -117.571)" fill="#02FEBA"/>
    <g id="Group_2582" data-name="Group 2582" transform="translate(15.874 16.209)">
      <path id="Path_1528" data-name="Path 1528" d="M277.348,265.653l20.659-19.437V245H276.464v2.154H270v7.54A11.864,11.864,0,0,0,277.348,265.653ZM274.309,254.7v-3.232h2.205a37.9,37.9,0,0,0,1.652,9.77A7.516,7.516,0,0,1,274.309,254.7Z" transform="translate(-270 -245)" fill="#02FEBA"/>
      <path id="Path_1529" data-name="Path 1529" d="M359.293,274.318v1.725a7.516,7.516,0,0,1-3.857,6.539,34.209,34.209,0,0,0,1.217-5.288l-12.745,14.367.3.127v2.569a2.154,2.154,0,0,1-2.154,2.154,4.309,4.309,0,0,0-4.309,4.309h17.235a4.309,4.309,0,0,0-4.309-4.309,2.154,2.154,0,0,1-2.154-2.154V291.8a9.711,9.711,0,0,0,4.495-3.977A11.864,11.864,0,0,0,363.6,276.047v-6.586Z" transform="translate(-329.133 -266.35)" fill="#02FEBA"/>
    </g>
  </g>
  <g id="Group_2587" data-name="Group 2587" transform="translate(17.156 8.772)">
    <g id="Group_2586" data-name="Group 2586" transform="translate(0 0)">
      <g id="Group_2585" data-name="Group 2585">
        <g id="Group_2584" data-name="Group 2584">
          <path id="Path_1530" data-name="Path 1530" d="M319.365,186.6a.206.206,0,0,1,.01.286l-34.774,39.2c-.022.024-.052.056-.076.08a2.614,2.614,0,0,1-3.664.044,2.538,2.538,0,0,1-.044-3.621L319.072,186.6a.213.213,0,0,1,.294,0Z" transform="translate(-280.079 -186.536)" fill="#02FEBA"/>
        </g>
      </g>
    </g>
  </g>
</svg>
