<svg xmlns="http://www.w3.org/2000/svg" id="three-quarters-of-an-hour" width="12.95" height="15.641" viewBox="0 0 12.95 15.641">
    <defs>
        <style>
            .cls-1{fill:#fff}
        </style>
    </defs>
    <g id="Layer_2_30_">
        <g id="Group_1368" data-name="Group 1368">
            <path id="Path_1110" d="M59.083 4.895l.709-.965a.38.38 0 0 0-.1-.542l-1.069-.73a.413.413 0 0 0-.562.093l-.726.989a6.585 6.585 0 0 0-1.715-.508v-.4a.479.479 0 0 1 .486-.468h.268a.479.479 0 0 0 .486-.468V.469A.479.479 0 0 0 56.377 0h-3.55a.479.479 0 0 0-.485.469v1.424a.479.479 0 0 0 .485.468h.268a.479.479 0 0 1 .486.468v.4a6.585 6.585 0 0 0-1.83.561l-.72-.98a.413.413 0 0 0-.562-.092L49.4 3.45a.38.38 0 0 0-.1.542l.726.989a6.114 6.114 0 0 0-1.9 4.417 6.479 6.479 0 0 0 12.95 0 6.121 6.121 0 0 0-1.993-4.503zM54.6 14.142A4.841 4.841 0 0 1 49.681 9.4a4.924 4.924 0 0 1 9.842 0 4.841 4.841 0 0 1-4.923 4.742z" class="cls-1" data-name="Path 1110" transform="translate(-48.127)"/>
            <path id="Path_1111" d="M127.389 171.291a3.993 3.993 0 0 0-4.057-3.882h-.032v3.881h-4.025v.031a3.99 3.99 0 0 0 4.025 3.912h.032a3.991 3.991 0 0 0 4.058-3.913l-.001-.029z" class="cls-1" data-name="Path 1111" transform="translate(-116.858 -161.925)"/>
        </g>
    </g>
</svg>
