<svg xmlns="http://www.w3.org/2000/svg" width="44.207" height="33.155" viewBox="0 0 44.207 33.155">
    <g id="contact-phone" transform="translate(0 -64)">
        <g id="Group_3818" data-name="Group 3818" transform="translate(0 64)">
            <path id="Path_2186" fill="#2fffc7" d="M40.523 64H3.684A3.683 3.683 0 0 0 0 67.684v25.787a3.683 3.683 0 0 0 3.684 3.684h36.839a3.667 3.667 0 0 0 3.665-3.684l.018-25.787A3.683 3.683 0 0 0 40.523 64zm-25.787 5.526a5.526 5.526 0 1 1-5.526 5.526 5.53 5.53 0 0 1 5.526-5.526zm11.052 22.1H3.684v-1.839c0-3.684 7.368-5.71 11.052-5.71s11.052 2.026 11.052 5.71zm7.092-7.368h3.02l2.781 3.684-3.675 3.678a13.833 13.833 0 0 1-5.535-11.043 13.534 13.534 0 0 1 .516-3.684 13.74 13.74 0 0 1 5.029-7.359l3.666 3.675-2.782 3.685h-3.021a11.1 11.1 0 0 0-.645 3.684 10.87 10.87 0 0 0 .645 3.684z" data-name="Path 2186" transform="translate(0 -64)"/>
        </g>
    </g>
</svg>
