<svg xmlns="http://www.w3.org/2000/svg" id="instagram" width="53.359" height="53.359" viewBox="0 0 53.359 53.359">
    <defs>
        <style>
            .cls-1{fill:#f5f5f5}
        </style>
    </defs>
    <g id="Group_3766" data-name="Group 3766">
        <g id="Group_3765" data-name="Group 3765">
            <path id="Path_2154" d="M36.685 0h-20.01A16.677 16.677 0 0 0 0 16.675v20.01a16.677 16.677 0 0 0 16.675 16.674h20.01a16.677 16.677 0 0 0 16.674-16.674v-20.01A16.677 16.677 0 0 0 36.685 0zm11.672 36.685a11.685 11.685 0 0 1-11.672 11.672h-20.01A11.685 11.685 0 0 1 5 36.685v-20.01A11.685 11.685 0 0 1 16.675 5h20.01a11.685 11.685 0 0 1 11.672 11.675z" class="cls-1" data-name="Path 2154"/>
        </g>
    </g>
    <g id="Group_3768" data-name="Group 3768" transform="translate(13.34 13.34)">
        <g id="Group_3767" data-name="Group 3767">
            <path id="Path_2155" d="M141.34 128a13.34 13.34 0 1 0 13.34 13.34A13.34 13.34 0 0 0 141.34 128zm0 21.677a8.337 8.337 0 1 1 8.337-8.337 8.349 8.349 0 0 1-8.337 8.337z" class="cls-1" data-name="Path 2155" transform="translate(-128 -128)"/>
        </g>
    </g>
    <g id="Group_3770" data-name="Group 3770" transform="translate(39.243 10.562)">
        <g id="Group_3769" data-name="Group 3769">
            <circle id="Ellipse_228" cx="1.778" cy="1.778" r="1.778" class="cls-1" data-name="Ellipse 228"/>
        </g>
    </g>
</svg>
