<?xml version="1.0" encoding="utf-8"?>
<!-- Generator: Adobe Illustrator 22.1.0, SVG Export Plug-In . SVG Version: 6.00 Build 0)  -->
<svg version="1.1" id="Layer_1" xmlns="http://www.w3.org/2000/svg" xmlns:xlink="http://www.w3.org/1999/xlink" x="0px" y="0px"
	 viewBox="0 0 1261.6 309.6" style="enable-background:new 0 0 1261.6 309.6;" xml:space="preserve">
<style type="text/css">
	.st0{fill:#103247;}
</style>
<g>
	<g>
		<g>
			<path class="st0" d="M238.2,246.8c-18.4,13-40.9,20.6-65.1,20.6c-62.6,0-113.5-50.9-113.5-113.5c0-17.5,4-34,11-48.8
				C76,94.4,83.2,84.3,92.1,75.4c40.2-40.2,103.2-43.9,147.6-11.1L270.8,35c-61.1-50-151.6-46.5-208.6,10.5
				C58.6,49.2,55.1,53,51.9,57l-0.2-0.3c-7,8.8-13.2,18.4-18.2,28.5c-8.6,17-13.8,35.2-15.8,53.7c0.2,0,0.4,0,0.5,0
				c-0.5,4.9-0.7,9.9-0.7,15c0,85.8,69.8,155.7,155.7,155.7c36.9,0,70.9-12.9,97.6-34.5c-9.7-9.8-19.4-19.5-29.2-29.3
				C240.5,246.2,239.4,246.5,238.2,246.8z"/>
			<g>
				<path class="st0" d="M126.6,173.3l97.1-91.4v-5.7H122.5v10.1H92.1v35.4C92.1,145,106.4,164.9,126.6,173.3z M112.3,121.8v-15.2
					h10.4c0.8,17.1,3.5,32.6,7.8,45.9C119.7,146.4,112.3,135,112.3,121.8L112.3,121.8z"/>
				<path class="st0" d="M233.9,113.6v8.1l0,0c0,13.2-7.4,24.6-18.1,30.7c2.4-7.6,4.4-15.9,5.7-24.9l-59.9,67.5
					c0.5,0.2,1,0.4,1.4,0.6v12.1c0,5.6-4.5,10.1-10.1,10.1c-11.2,0-20.3,9.1-20.3,20.3h81c0-11.2-9.1-20.3-20.3-20.3
					c-5.6,0-10.1-4.5-10.1-10.1v-12c8-3,15.1-9.5,21.1-18.7c27.9-3,49.8-26.7,49.8-55.4V90.8L233.9,113.6z"/>
			</g>
		</g>
		<g>
			<g>
				<g>
					<g>
						<path class="st0" d="M282.8,41.5c0.4,0.4,0.4,1,0,1.3L119.4,227.1c-0.1,0.1-0.2,0.3-0.4,0.4c-4.7,4.8-12.4,4.8-17.2,0.2
							c-4.8-4.6-4.9-12.3-0.2-17L281.4,41.5C281.8,41.1,282.4,41.1,282.8,41.5L282.8,41.5z"/>
					</g>
				</g>
			</g>
		</g>
	</g>
	<g>
		<path class="st0" d="M462.6,184.8c-7.7,8.1-21.4,12.9-31.7,12.9c-30.3,0-40.4-22.3-40.6-41.9c-0.2-19.6,11.3-43.3,40.6-43.3
			c10.3,0,21.6,3.3,29.3,11.1l18.1-18.6c-13.3-13.6-29.7-20.8-47.4-20.8c-47.4,0-69.2,36.5-69,71.3c0.2,36.7,19.7,69.8,69,69.8
			c19.2,0,36.3-6.2,49.6-19.8L462.6,184.8z"/>
		<polygon class="st0" points="612.6,222.1 612.6,87.5 584.2,87.5 584.2,141.3 526.4,141.3 526.4,87.5 497.7,87.5 497.7,222.1 
			526.4,222.1 526.4,168.8 584.2,168.8 584.2,222.1 		"/>
		<path class="st0" d="M722,172.3h-44.5l22.3-54.6L722,172.3z M742.3,221.9h31.2L715.6,87.3h-31.4l-57.9,134.6h31l9.4-23.1h66.2
			L742.3,221.9z"/>
		<polygon class="st0" points="787.1,87.3 787.1,221.9 880.5,221.9 880.5,194.4 815.9,194.4 815.9,87.3 		"/>
		<polygon class="st0" points="897.8,87.3 897.8,221.9 991.2,221.9 991.2,194.4 926.6,194.4 926.6,87.3 		"/>
		<path class="st0" d="M1106.9,194.2h-70.1v-27.1h63.6v-26.3h-63.6v-26h67.5V87.3h-95.8c0,44.8,0,89.8,0,134.6h98.3V194.2z"/>
		<path class="st0" d="M1190.8,113.1c13.5,0,19.2,11.1,19.4,20.4c0,8.5-5.7,18.8-19,18.8h-32.8v-39.2H1190.8z M1244.1,219.6
			l-35.4-44.6c24.7-9.2,29.7-24.8,29.9-42.3c0-23.6-16.6-45.4-47.8-45.4c-20.8,0-40.2,0-61.3,0v134.6h28.8v-44.2h20.8l33,44.2h31.9
			V219.6z"/>
	</g>
</g>
</svg>
