<svg id="Group_3755" data-name="Group 3755" xmlns="http://www.w3.org/2000/svg" width="131.308" height="153.046" viewBox="0 0 131.308 153.046">
  <g id="Group_2588" data-name="Group 2588">
    <g id="Group_2583" data-name="Group 2583">
      <path id="Path_1527" data-name="Path 1527" d="M254.349,239.566a55.87,55.87,0,1,1,.732-90.21l15.374-14.466a77.068,77.068,0,0,0-103.107,5.187,75.952,75.952,0,0,0-5.123,5.66l-.115-.127A79.321,79.321,0,0,0,145.3,186.259h.262c-.234,2.435-.358,4.9-.358,7.4a76.9,76.9,0,0,0,125.207,59.9q-7.206-7.249-14.414-14.491a10.53,10.53,0,0,1-1.645.5Z" transform="translate(-145.201 -117.571)" fill="#02ffbb"/>
      <g id="Group_2582" data-name="Group 2582" transform="translate(36.888 37.668)">
        <path id="Path_1528" data-name="Path 1528" d="M287.075,292.994l48.008-45.169V245H285.02v5.006H270v17.522A27.57,27.57,0,0,0,287.075,292.994Zm-7.063-25.464V260.02h5.125a88.076,88.076,0,0,0,3.839,22.7,17.466,17.466,0,0,1-8.964-15.195Z" transform="translate(-270 -245)" fill="#02ffbb"/>
        <path id="Path_1529" data-name="Path 1529" d="M387.813,280.749v4.008a17.466,17.466,0,0,1-8.964,15.195,79.494,79.494,0,0,0,2.829-12.289L352.06,321.049l.709.3v5.971a5.006,5.006,0,0,1-5.006,5.006,10.013,10.013,0,0,0-10.013,10.013H377.8a10.013,10.013,0,0,0-10.013-10.013,5.006,5.006,0,0,1-5.006-5.006v-5.94a22.567,22.567,0,0,0,10.445-9.242,27.57,27.57,0,0,0,24.6-27.369v-15.3Z" transform="translate(-317.725 -262.231)" fill="#02ffbb"/>
      </g>
    </g>
    <g id="Group_2587" data-name="Group 2587" transform="translate(39.868 20.384)">
      <g id="Group_2586" data-name="Group 2586" transform="translate(0 0)">
        <g id="Group_2585" data-name="Group 2585">
          <g id="Group_2584" data-name="Group 2584">
            <path id="Path_1530" data-name="Path 1530" d="M371.373,186.679a.479.479,0,0,1,.022.664l-80.81,91.1c-.052.056-.12.13-.176.185a6.074,6.074,0,0,1-8.516.1,5.9,5.9,0,0,1-.1-8.413l88.9-83.643a.494.494,0,0,1,.684,0Z" transform="translate(-280.079 -186.536)" fill="#02ffbb"/>
          </g>
        </g>
      </g>
    </g>
  </g>
</svg>
