<svg xmlns="http://www.w3.org/2000/svg" width="16.618" height="16.618" viewBox="0 0 16.618 16.618">
  <g id="Group_4168" data-name="Group 4168" transform="translate(-198 -196.729)">
    <path id="Union_81" data-name="Union 81" d="M6.852,15.161,4.929,15.9l-.658-1.715H2.433v-2.06L.552,11.287,1.3,9.608,0,8.309,1.457,6.852.719,4.929l1.715-.658V2.434h2.06L5.331.552,7.009,1.3,8.309,0,9.766,1.457,11.689.719l.658,1.715h1.837v2.06l1.881.838-.747,1.678,1.3,1.3L15.161,9.765l.738,1.923-1.715.658v1.838H12.124l-.838,1.881-1.678-.747-1.3,1.3Z" transform="translate(198 196.729)" fill="#103247"/>
    <g id="check_2_" data-name="check(2)" transform="translate(195.378 152.456)">
      <g id="Group_4374" data-name="Group 4374" transform="translate(8 50.096)">
        <path id="Path_2539" data-name="Path 2539" d="M6.465,51.176a.262.262,0,0,0-.37-.006l-.006.006L1.828,55.437.443,54.053a.262.262,0,0,0-.37.37l1.569,1.569a.262.262,0,0,0,.37,0l4.446-4.446A.262.262,0,0,0,6.465,51.176Z" transform="translate(0 -51.096)" fill="#fff" stroke="#fff" stroke-width="1"/>
      </g>
    </g>
  </g>
</svg>
