<svg xmlns="http://www.w3.org/2000/svg" width="71.746" height="51.28" viewBox="0 0 71.746 51.28">
    <g id="twitter">
        <g id="Group_3771" data-name="Group 3771">
            <path id="Path_2156" fill="#f5f5f5" d="M71.729 90.4a2.1 2.1 0 0 0-1.609-1.785l-7.19-1.675a18.34 18.34 0 0 0-4.21-9.037c-2.939-3.235-7.092-4.875-12.343-4.875-4.9 0-8.577 1.568-10.938 4.661-2.98 3.9-2.992 9.281-2.588 12.746C26.783 88.64 17.1 84.8 15.22 79.64a2.1 2.1 0 0 0-3.9-.113 23.5 23.5 0 0 0 .139 19.144c.381.874.789 1.687 1.2 2.431L2.729 98a2.1 2.1 0 0 0-2.717 2.23 29.506 29.506 0 0 0 4.646 12.042c3.666 5.49 10.928 12.034 24.7 12.034a33.8 33.8 0 0 0 18.763-5.316 35.574 35.574 0 0 0 10.45-10.65 30.374 30.374 0 0 0 4.549-11.923l7.492-3.892a2.1 2.1 0 0 0 1.117-2.125zm-11.521 2.8a2.1 2.1 0 0 0-1.121 1.638 26 26 0 0 1-4.046 11.227c-4.141 6.4-11.961 14.035-25.68 14.035-9.5 0-16.605-3.374-21.116-10.028a26.017 26.017 0 0 1-3.3-6.976l12.411 3.879a2.1 2.1 0 0 0 2.123-3.483c-.086-.087-7.635-7.893-5.568-18.285 2.347 2.5 5.97 4.775 10.834 6.8a69.414 69.414 0 0 0 10.293 3.345 2.1 2.1 0 0 0 2.491-2.6c-.022-.081-2.134-8.1 1.256-12.526 1.545-2.018 4.028-3 7.59-3 7.264 0 11.375 3.7 12.567 11.312.02.13.038.26.056.391v.021a2.1 2.1 0 0 0 1.605 1.759l3.019.7z" data-name="Path 2156" transform="translate(0 -73.026)"/>
        </g>
    </g>
</svg>
