<svg xmlns="http://www.w3.org/2000/svg" width="40" height="40" viewBox="0 0 40 40">
    <g id="prefix__Group_3427" data-name="Group 3427" transform="translate(-16 -95)">
        <g id="prefix__Group_3159" data-name="Group 3159" transform="translate(16 95)">
            <circle id="prefix__Ellipse_159" cx="20" cy="20" r="20" fill="#ffd100" data-name="Ellipse 159"/>
        </g>
        <path id="prefix__auto-fix" fill="#103247" d="M8.035 5.9L5.329 7.411l1.515-2.705L5.329 2l2.706 1.515L10.74 2 9.225 4.706l1.515 2.705L8.035 5.9m12.986 10.6l2.706-1.515-1.515 2.706 1.515 2.709-2.706-1.515-2.705 1.515 1.515-2.706-1.515-2.706 2.705 1.512M23.727 2l-1.515 2.706 1.515 2.706L21.021 5.9l-2.705 1.511 1.515-2.706L18.316 2l2.706 1.515L23.727 2m-9.372 11.666L17 11.026l-2.3-2.295-2.64 2.641 2.294 2.294m1.115-5.941L18 10.257a1.078 1.078 0 0 1 0 1.526L5.372 24.413a1.078 1.078 0 0 1-1.526 0L1.314 21.88a1.078 1.078 0 0 1 0-1.526L13.943 7.725a1.078 1.078 0 0 1 1.526 0z" transform="translate(23.927 101.95)"/>
    </g>
</svg>
