<svg xmlns="http://www.w3.org/2000/svg" width="40" height="40" viewBox="0 0 40 40">
    <g id="Group_3381" data-name="Group 3381" transform="translate(-301 -369)">
        <g id="Group_3369" data-name="Group 3369" transform="translate(301 369)">
            <g id="Group_3159" data-name="Group 3159" opacity="0.25">
                <circle id="Ellipse_159" cx="20" cy="20" r="20" fill="#fff" data-name="Ellipse 159"/>
            </g>
        </g>
        <path id="heart-outline" fill="#0b273b" d="M14.614 22.421l-.125.125-.137-.125C8.419 17.038 4.5 13.478 4.5 9.869A4.268 4.268 0 0 1 8.869 5.5a4.9 4.9 0 0 1 4.459 2.947h2.323A4.9 4.9 0 0 1 20.109 5.5a4.268 4.268 0 0 1 4.371 4.369c0 3.609-3.922 7.169-9.866 12.552M20.109 3a7.51 7.51 0 0 0-5.62 2.6A7.51 7.51 0 0 0 8.869 3 6.8 6.8 0 0 0 2 9.869c0 4.708 4.246 8.568 10.678 14.4l1.811 1.649 1.811-1.649c6.432-5.832 10.678-9.692 10.678-14.4A6.8 6.8 0 0 0 20.109 3z" transform="translate(307 375)"/>
    </g>
</svg>
