<?xml version="1.0" encoding="utf-8"?>
<!-- Generator: Adobe Illustrator 22.1.0, SVG Export Plug-In . SVG Version: 6.00 Build 0)  -->
<svg version="1.1" id="Layer_1" xmlns="http://www.w3.org/2000/svg" xmlns:xlink="http://www.w3.org/1999/xlink" x="0px" y="0px"
	 viewBox="0 0 39.6 39.6" style="enable-background:new 0 0 39.6 39.6;" xml:space="preserve">
<style type="text/css">
	.st0{fill:#FFFFFF;}
	.st1{fill-rule:evenodd;clip-rule:evenodd;fill:#FFFFFF;}
</style>
<g>
	<path class="st0" d="M19.8,39.6C8.9,39.6,0,30.7,0,19.8S8.9,0,19.8,0s19.8,8.9,19.8,19.8S30.7,39.6,19.8,39.6z M19.8,1.5
		C9.7,1.5,1.5,9.7,1.5,19.8s8.2,18.3,18.3,18.3s18.3-8.2,18.3-18.3S29.9,1.5,19.8,1.5z"/>
</g>
<path class="st1" d="M21.6,15.1v-1.9c0-0.3,0.1-0.6,0.3-0.8c0.2-0.2,0.5-0.3,0.8-0.3h2.6V8h-3.6c-4,0-4.9,3-4.9,4.9v2.1h-2.3v4.7
	h2.4v11.7h4.7V19.8h3.5L25,18l0.2-2.9H21.6z"/>
</svg>
