<?xml version="1.0" encoding="utf-8"?>
<!-- Generator: Adobe Illustrator 22.1.0, SVG Export Plug-In . SVG Version: 6.00 Build 0)  -->
<svg version="1.1" id="Layer_1" xmlns="http://www.w3.org/2000/svg" xmlns:xlink="http://www.w3.org/1999/xlink" x="0px" y="0px"
	 viewBox="0 0 39.6 39.6" style="enable-background:new 0 0 39.6 39.6;" xml:space="preserve">
<style type="text/css">
	.st0{fill:none;stroke:#FFFFFF;stroke-width:1.5;stroke-miterlimit:10;}
	.st1{fill:#FFFFFF;}
</style>
<g>
	<path class="st0" d="M0.7,19.8L0.7,19.8c0-0.6,0-1.2,0.1-1.9s0.2-1.2,0.3-1.8c0.1-0.6,0.3-1.2,0.5-1.8c0.2-0.6,0.4-1.2,0.6-1.8
		s0.5-1.1,0.8-1.7c0.3-0.5,0.6-1.1,1-1.6c0.3-0.5,0.7-1,1.1-1.5c0.4-0.5,0.8-0.9,1.3-1.4c0.4-0.4,0.9-0.9,1.4-1.3
		c0.5-0.4,1-0.8,1.5-1.1c0.5-0.3,1.1-0.7,1.6-1c0.5-0.3,1.1-0.6,1.7-0.8c0.6-0.2,1.2-0.4,1.8-0.6s1.2-0.3,1.8-0.5
		c0.6-0.1,1.2-0.2,1.8-0.3s1.2-0.1,1.9-0.1h0c0.6,0,1.2,0,1.9,0.1s1.2,0.2,1.8,0.3c0.6,0.1,1.2,0.3,1.8,0.5s1.2,0.4,1.8,0.6
		c0.6,0.2,1.1,0.5,1.7,0.8c0.5,0.3,1.1,0.6,1.6,1s1,0.7,1.5,1.1c0.5,0.4,0.9,0.8,1.4,1.3c0.4,0.4,0.9,0.9,1.3,1.4
		c0.4,0.5,0.8,1,1.1,1.5c0.3,0.5,0.7,1.1,1,1.6s0.6,1.1,0.8,1.7c0.2,0.6,0.4,1.2,0.6,1.8c0.2,0.6,0.3,1.2,0.5,1.8
		c0.1,0.6,0.2,1.2,0.3,1.8s0.1,1.2,0.1,1.9v0c0,0.6,0,1.2-0.1,1.9s-0.2,1.2-0.3,1.8c-0.1,0.6-0.3,1.2-0.5,1.8
		c-0.2,0.6-0.4,1.2-0.6,1.8c-0.2,0.6-0.5,1.1-0.8,1.7c-0.3,0.5-0.6,1.1-1,1.6c-0.3,0.5-0.7,1-1.1,1.5c-0.4,0.5-0.8,0.9-1.3,1.4
		s-0.9,0.9-1.4,1.3c-0.5,0.4-1,0.8-1.5,1.1c-0.5,0.3-1.1,0.7-1.6,1c-0.5,0.3-1.1,0.6-1.7,0.8c-0.6,0.2-1.2,0.4-1.8,0.6
		c-0.6,0.2-1.2,0.3-1.8,0.5s-1.2,0.2-1.8,0.3s-1.2,0.1-1.9,0.1h0c-0.6,0-1.2,0-1.9-0.1s-1.2-0.2-1.8-0.3c-0.6-0.1-1.2-0.3-1.8-0.5
		c-0.6-0.2-1.2-0.4-1.8-0.6c-0.6-0.2-1.1-0.5-1.7-0.8c-0.5-0.3-1.1-0.6-1.6-1c-0.5-0.3-1-0.7-1.5-1.1s-0.9-0.8-1.4-1.3
		s-0.9-0.9-1.3-1.4c-0.4-0.5-0.8-1-1.1-1.5c-0.3-0.5-0.7-1.1-1-1.6c-0.3-0.5-0.6-1.1-0.8-1.7c-0.2-0.6-0.4-1.2-0.6-1.8
		c-0.2-0.6-0.3-1.2-0.5-1.8c-0.1-0.6-0.2-1.2-0.3-1.8S0.7,20.4,0.7,19.8z"/>
	<path class="st1" d="M22.2,19.3h-7.7l0,2.2h5.2c-0.6,2.7-2.5,4.3-5,4.3c-3.3,0-6-2.7-6-6c0-3.3,2.7-6,6-6c1.6,0,3,0.6,4.1,1.6
		l1.7-1.5c-1.5-1.5-3.5-2.4-5.8-2.4c-4.6,0-8.3,3.7-8.3,8.3c0,4.6,3.7,8.3,8.3,8.3c4.4,0,7.6-3.3,7.6-7.9L22.2,19.3z"/>
	<polygon class="st1" points="33.2,19.4 30,19.4 30,16.2 28,16.2 28,19.4 24.8,19.4 24.8,21.4 28,21.4 28,24.6 30,24.6 30,21.4 
		33.2,21.4 	"/>
</g>
</svg>
