<svg xmlns="http://www.w3.org/2000/svg" width="26.08" height="25.19" viewBox="0 0 26.08 25.19">
    <path id="home" fill="none" stroke="#36efa5" d="M9.62 22.888v-6.217a1.228 1.228 0 0 1 1.206-1.206h3.387a1.228 1.228 0 0 1 1.206 1.206v6.264a1.228 1.228 0 0 0 1.206 1.206h4.826a1.228 1.228 0 0 0 1.206-1.206v-9.141a1.228 1.228 0 0 1 1.206-1.206 1.187 1.187 0 0 0 .789-2.088L13.332.338a1.209 1.209 0 0 0-1.624 0L.433 10.5a1.2 1.2 0 0 0 .789 2.088 1.228 1.228 0 0 1 1.206 1.206v9.141a1.228 1.228 0 0 0 1.206 1.206H8.46a1.23 1.23 0 0 0 1.16-1.253z" transform="translate(.492 .549)"/>
</svg>
