<svg xmlns="http://www.w3.org/2000/svg" width="27.152" height="27.152" viewBox="0 0 27.152 27.152">
    <g id="Group_2493" data-name="Group 2493" transform="translate(-297.469 -530.383)">
        <g id="icono_reto" data-name="icono reto" transform="translate(297.469 530.383)">
            <path id="Path_27" fill="#cbcbcb" d="M26.36 1.923h-3.507V.792A.773.773 0 0 0 22.061 0H5.091A.773.773 0 0 0 4.3.792v1.131H.792A.773.773 0 0 0 0 2.715a17.312 17.312 0 0 0 2.6 9.5c1.7 2.489 3.847 3.96 6.335 4.073a9.839 9.839 0 0 0 1.7 1.471v3.507H9.277a3 3 0 0 0-2.941 2.941v1.358a.792.792 0 0 0 0 1.584h14.481a.792.792 0 0 0 0-1.584v-1.354a3 3 0 0 0-2.941-2.941h-1.358v-3.508a9.839 9.839 0 0 0 1.7-1.471c2.376-.113 4.638-1.584 6.335-4.073a17.044 17.044 0 0 0 2.6-9.5.773.773 0 0 0-.793-.795zm-22.4 9.39a15.864 15.864 0 0 1-2.376-7.806H4.3a26.659 26.659 0 0 0 2.489 9.616c.226.453.453.792.679 1.244a7.327 7.327 0 0 1-3.508-3.054zm19.233 0a7.991 7.991 0 0 1-3.507 3.055 12.341 12.341 0 0 0 .679-1.244 27.294 27.294 0 0 0 2.489-9.616h2.715a15.5 15.5 0 0 1-2.377 7.805z" data-name="Path 27"/>
        </g>
        <g id="chalenge_icon" data-name="chalenge icon" transform="translate(307.319 536.046)">
            <path id="Path_39" fill="#fff" d="M14.934 61.579V58.6h-1.986v2.979H10v1.955h2.948v2.979h1.986v-2.979h2.979v-1.955z" data-name="Path 39" transform="translate(-10 -58.6)"/>
        </g>
    </g>
</svg>
