<svg xmlns="http://www.w3.org/2000/svg" width="25" height="22.955" viewBox="0 0 25 22.955">
  <g id="Union_85" data-name="Union 85" fill="none">
    <path d="M1.569,22.955a1.568,1.568,0,1,1,0-3.136H7.442l-5.9-5.9a1.723,1.723,0,0,1,0-2.432L12.489.5A1.671,1.671,0,0,1,14.9.52L23.4,9.058a1.721,1.721,0,0,1,0,2.432l-8.324,8.329h8.354a1.568,1.568,0,1,1,0,3.136Z" stroke="none"/>
    <path d="M 11.26070880889893 20.80734825134277 L 13.66248035430908 18.40419006347656 L 21.78879737854004 10.27319526672363 L 13.68319225311279 2.137571811676025 L 3.155692338943481 12.70489978790283 L 8.856160163879395 18.40356063842773 L 11.26070880889893 20.80734825134277 M 23.43149948120117 22.95450019836426 L 1.568700194358826 22.95450019836426 C 0.7020001411437988 22.95450019836426 1.358032193365943e-07 22.25250053405762 1.358032193365943e-07 21.38669967651367 C 1.358032193365943e-07 20.52000045776367 0.7020001411437988 19.81800079345703 1.568700194358826 19.81800079345703 L 7.442170143127441 19.81800079345703 L 1.543500185012817 13.9212007522583 C 0.8739001154899597 13.2480001449585 0.8739001154899597 12.16170024871826 1.543500185012817 11.48940086364746 L 12.48929977416992 0.5022004842758179 C 12.82229900360107 0.1683073341846466 13.25711154937744 0.0002032043412327766 13.69025897979736 0.0002032043412327766 C 14.12926197052002 0.0002032043412327766 14.56655979156494 0.1727331727743149 14.89500045776367 0.5202004909515381 L 23.40089988708496 9.057600021362305 C 24.0713996887207 9.729900360107422 24.0713996887207 10.81620025634766 23.40089988708496 11.48940086364746 L 15.07709980010986 19.81800079345703 L 23.43149948120117 19.81800079345703 C 24.2982006072998 19.81800079345703 25.00020027160645 20.52000045776367 25.00020027160645 21.38669967651367 C 25.00020027160645 22.25250053405762 24.2982006072998 22.95450019836426 23.43149948120117 22.95450019836426 Z" stroke="none" fill="#b6b6b6"/>
  </g>
</svg>
