<svg xmlns="http://www.w3.org/2000/svg" width="25" height="22.955" viewBox="0 0 25 22.955">
  <g id="Union_86" data-name="Union 86" fill="#103247">
    <path d="M 23.43149948120117 21.95450019836426 L 1.568700194358826 21.95450019836426 C 1.255120158195496 21.95450019836426 1.00000011920929 21.69979095458984 1.00000011920929 21.38669967651367 C 1.00000011920929 21.0731201171875 1.255120158195496 20.81800079345703 1.568700194358826 20.81800079345703 L 7.442170143127441 20.81800079345703 L 9.85692024230957 20.81800079345703 L 8.149160385131836 19.11078071594238 L 2.250490188598633 13.21398067474365 C 1.972220182418823 12.93421077728271 1.972010135650635 12.47623062133789 2.25203013420105 12.19508075714111 L 13.19774055480957 1.207970499992371 C 13.33123016357422 1.074130415916443 13.50627994537354 1.000200510025024 13.69025993347168 1.000200510025024 C 13.87238025665283 1.000200510025024 14.04214000701904 1.073690414428711 14.16828060150146 1.207130432128906 L 14.1773099899292 1.216680526733398 L 14.18659019470215 1.226000428199768 L 22.69248962402344 9.763400077819824 C 22.97298049926758 10.04464054107666 22.97277069091797 10.50219058990479 22.69236946105957 10.78372001647949 L 14.36979007720947 19.1111011505127 L 12.66386985778809 20.81800079345703 L 15.07709980010986 20.81800079345703 L 23.43149948120117 20.81800079345703 C 23.74508094787598 20.81800079345703 24.00020027160645 21.0731201171875 24.00020027160645 21.38669967651367 C 24.00020027160645 21.69979095458984 23.74508094787598 21.95450019836426 23.43149948120117 21.95450019836426 Z" stroke="none"/>
    <path d="M 11.26070880889893 20.80734825134277 L 13.66248035430908 18.40419006347656 L 21.78879737854004 10.27319526672363 L 13.68319225311279 2.137571811676025 L 3.155692338943481 12.70489978790283 L 8.856160163879395 18.40356063842773 L 11.26070880889893 20.80734825134277 M 23.43149948120117 22.95450019836426 L 1.568700194358826 22.95450019836426 C 0.7020001411437988 22.95450019836426 1.358032193365943e-07 22.25250053405762 1.358032193365943e-07 21.38669967651367 C 1.358032193365943e-07 20.52000045776367 0.7020001411437988 19.81800079345703 1.568700194358826 19.81800079345703 L 7.442170143127441 19.81800079345703 L 1.543500185012817 13.9212007522583 C 0.8739001154899597 13.2480001449585 0.8739001154899597 12.16170024871826 1.543500185012817 11.48940086364746 L 12.48929977416992 0.5022004842758179 C 12.82229900360107 0.1683073341846466 13.25711154937744 0.0002032043412327766 13.69025897979736 0.0002032043412327766 C 14.12926197052002 0.0002032043412327766 14.56655979156494 0.1727331727743149 14.89500045776367 0.5202004909515381 L 23.40089988708496 9.057600021362305 C 24.0713996887207 9.729900360107422 24.0713996887207 10.81620025634766 23.40089988708496 11.48940086364746 L 15.07709980010986 19.81800079345703 L 23.43149948120117 19.81800079345703 C 24.2982006072998 19.81800079345703 25.00020027160645 20.52000045776367 25.00020027160645 21.38669967651367 C 25.00020027160645 22.25250053405762 24.2982006072998 22.95450019836426 23.43149948120117 22.95450019836426 Z" stroke="none" fill="#103247"/>
  </g>
</svg>
