<svg xmlns="http://www.w3.org/2000/svg" width="11.559" height="12.844" viewBox="0 0 11.559 12.844">
    <path id="vote" fill="#fff" d="M12.633 9.064H12.2l-1.284 1.284h1.227l1.137 1.284H4.284l1.143-1.284h1.317L5.46 9.064h-.533L3 10.99v2.569a1.284 1.284 0 0 0 1.284 1.284h8.991a1.284 1.284 0 0 0 1.284-1.284V10.99l-1.926-1.926m-.642-3.243L8.812 9l-2.28-2.274 3.185-3.179L11.99 5.82M9.268 2.186l-4.091 4.09a.64.64 0 0 0 0 .905l3.179 3.166a.618.618 0 0 0 .905 0l4.084-4.071a.64.64 0 0 0 0-.905l-3.178-3.179a.626.626 0 0 0-.899-.006z" transform="translate(-3 -1.999)"/>
</svg>
