<svg xmlns="http://www.w3.org/2000/svg" id="Component_5_11" width="192" height="49.225" data-name="Component 5 – 11" viewBox="0 0 192 49.225">
    <defs>
        <style>
            .cls-2{fill:#fff}
        </style>
    </defs>
    <path id="Path_2239" d="M1369.884 1118.81h179.694a6.153 6.153 0 0 1 6.153 6.153v36.919a6.153 6.153 0 0 1-6.153 6.153h-179.694a6.153 6.153 0 0 1-6.153-6.153v-36.919a6.153 6.153 0 0 1 6.153-6.153z" data-name="Path 2239" transform="translate(-1363.731 -1118.81)"/>
    <path id="Path_2240" fill="#a6a6a6" d="M1549.578 1119.795a5.168 5.168 0 0 1 5.169 5.169v36.919a5.169 5.169 0 0 1-5.169 5.169h-179.694a5.169 5.169 0 0 1-5.169-5.169v-36.919a5.169 5.169 0 0 1 5.169-5.169h179.694m0-.984h-179.694a6.153 6.153 0 0 0-6.153 6.153v36.919a6.153 6.153 0 0 0 6.153 6.153h179.694a6.153 6.153 0 0 0 6.153-6.153v-36.919a6.153 6.153 0 0 0-6.153-6.154z" data-name="Path 2240" transform="translate(-1363.731 -1118.81)"/>
    <g id="Group_3813" data-name="Group 3813" transform="translate(20.824 7.259)">
        <path id="Path_2241" d="M1660 1262.473a.406.406 0 0 1-.48 0 4.755 4.755 0 0 1-1.169-1.354 3.975 3.975 0 0 1-3.351 1.481 2.879 2.879 0 0 1-3.027-3.163 3.421 3.421 0 0 1 2.154-3.31 13.927 13.927 0 0 1 3.827-.7v-.258a2.635 2.635 0 0 0-.246-1.477 1.392 1.392 0 0 0-1.145-.529 1.563 1.563 0 0 0-1.637 1.231.418.418 0 0 1-.345.369l-1.969-.209a.357.357 0 0 1-.313-.4.318.318 0 0 1 .006-.035c.455-2.387 2.609-3.1 4.541-3.1a4.626 4.626 0 0 1 3.064 1.009c.984.923.886 2.154.886 3.5v3.163a2.745 2.745 0 0 0 .763 1.87.381.381 0 0 1 0 .539l-1.575 1.378z" class="cls-2" data-name="Path 2241" transform="translate(-1625.327 -1236.505)"/>
        <path id="Path_2242" d="M1498.224 1262.471a.406.406 0 0 1-.48 0 4.921 4.921 0 0 1-1.157-1.354 4.012 4.012 0 0 1-3.286 1.489 2.88 2.88 0 0 1-3.077-3.163 3.433 3.433 0 0 1 2.166-3.31 13.759 13.759 0 0 1 3.815-.714v-.258a2.633 2.633 0 0 0-.246-1.477 1.378 1.378 0 0 0-1.144-.529 1.551 1.551 0 0 0-1.624 1.231.443.443 0 0 1-.357.369l-1.994-.209a.357.357 0 0 1-.3-.406v-.025c.443-2.387 2.609-3.1 4.541-3.1a4.566 4.566 0 0 1 3.052 1.009c.984.923.9 2.154.9 3.5v3.163a2.745 2.745 0 0 0 .763 1.871.4.4 0 0 1 0 .542z" class="cls-2" data-name="Path 2242" transform="translate(-1490.21 -1236.503)"/>
        <path id="Path_2243" d="M1577.767 1330.438a25.044 25.044 0 0 1-14.1 4.307 25.574 25.574 0 0 1-17.229-6.572c-.357-.32 0-.763.394-.517a34.617 34.617 0 0 0 17.229 4.578 34.176 34.176 0 0 0 13.143-2.695c.649-.27 1.191.431.563.899z" class="cls-2" data-name="Path 2243" transform="translate(-1537.055 -1300.47)"/>
        <path id="Path_2244" d="M1722.906 1325.171c-.48-.628-3.212-.308-4.443-.16-.369 0-.431-.271-.1-.5 2.178-1.538 5.759-1.1 6.153-.579s-.111 4.1-2.154 5.809c-.32.258-.615.123-.48-.222.482-1.16 1.518-3.732 1.024-4.348z" class="cls-2" data-name="Path 2244" transform="translate(-1680.619 -1297.013)"/>
        <path id="Path_2245" d="M1718.384 1254.623v-1.489a.381.381 0 0 1 .381-.382h6.621a.381.381 0 0 1 .381.382v1.231a2.105 2.105 0 0 1-.5.935l-3.458 4.923a7.383 7.383 0 0 1 3.815.812.665.665 0 0 1 .345.579v1.6a.357.357 0 0 1-.492.332 7.68 7.68 0 0 0-7.039 0c-.234.123-.48-.123-.48-.345v-1.44a1.785 1.785 0 0 1 .246-1.021l4.012-5.747h-3.446a.369.369 0 0 1-.381-.357s-.005-.009-.005-.013z" class="cls-2" data-name="Path 2245" transform="translate(-1680.454 -1237.958)"/>
        <path id="Path_2246" d="M1560.566 1262.957h-2.031a.394.394 0 0 1-.369-.345v-10.423a.37.37 0 0 1 .369-.37h1.908a.369.369 0 0 1 .369.345v1.354a2.793 2.793 0 0 1 5.3 0 3 3 0 0 1 5.156-.788 5.6 5.6 0 0 1 .517 3.273v6.572a.394.394 0 0 1-.394.381h-1.981a.394.394 0 0 1-.369-.381v-5.526a14.64 14.64 0 0 0 0-1.944 1.071 1.071 0 0 0-1.217-.9h-.013a1.341 1.341 0 0 0-1.231.849 6.285 6.285 0 0 0-.185 1.993v5.526a.382.382 0 0 1-.332.381h-2.092a.394.394 0 0 1-.357-.381v-5.526c0-1.157.2-2.867-1.231-2.867s-1.4 1.661-1.4 2.867v5.526a.381.381 0 0 1-.38.383z" class="cls-2" data-name="Path 2246" transform="translate(-1546.977 -1236.989)"/>
        <path id="Path_2247" d="M1777.325 1251.631c3.015 0 4.64 2.584 4.64 5.87s-1.772 5.7-4.64 5.7-4.566-2.584-4.566-5.809 1.649-5.761 4.566-5.761zm0 2.129c-1.489 0-1.588 2.031-1.588 3.31s0 3.987 1.575 3.987 1.649-2.191 1.649-3.532a9.523 9.523 0 0 0-.308-2.769 1.23 1.23 0 0 0-1.328-.996z" class="cls-2" data-name="Path 2247" transform="translate(-1726.239 -1237.021)"/>
        <path id="Path_2248" d="M1840.509 1262.973h-2.068a.394.394 0 0 1-.357-.381v-10.424a.394.394 0 0 1 .394-.332h1.883a.357.357 0 0 1 .357.283v1.6a2.745 2.745 0 0 1 2.757-2.1 2.658 2.658 0 0 1 2.375 1.231 6.671 6.671 0 0 1 .529 3.249v6.559a.394.394 0 0 1-.394.332h-1.994a.381.381 0 0 1-.357-.332v-5.661c0-1.132.123-2.806-1.231-2.806a1.317 1.317 0 0 0-1.231.837 4.64 4.64 0 0 0-.32 1.969v5.612a.406.406 0 0 1-.343.364z" class="cls-2" data-name="Path 2248" transform="translate(-1780.809 -1237.005)"/>
        <path id="Path_2249" d="M1673.074 1288.537a4.013 4.013 0 0 1-.381 2.154 1.637 1.637 0 0 1-1.4.923c-.788 0-1.231-.591-1.231-1.464 0-1.735 1.551-2.043 3.027-2.043z" data-name="Path 2249" transform="translate(-1640.448 -1267.491)"/>
        <path id="Path_2250" d="M1511.327 1288.537a3.9 3.9 0 0 1-.382 2.154 1.636 1.636 0 0 1-1.4.923c-.775 0-1.231-.591-1.231-1.464 0-1.735 1.551-2.043 3.015-2.043z" data-name="Path 2250" transform="translate(-1505.332 -1267.491)"/>
        <path id="Path_2251" d="M1921.822 1263.588a3.3 3.3 0 0 1-2.4-.886 3.3 3.3 0 0 1 .209-4.775 4.6 4.6 0 0 1 3.04-.935 10.908 10.908 0 0 1 2.461.32v-1.231a1.993 1.993 0 0 0-.468-1.5 2.461 2.461 0 0 0-1.637-.419 9.036 9.036 0 0 0-1.551.135 9.236 9.236 0 0 0-1.6.394 1.629 1.629 0 0 1-.369.062c-.185 0-.271-.135-.271-.406v-.788a.728.728 0 0 1 .086-.418 1.034 1.034 0 0 1 .443-.283 10.237 10.237 0 0 1 3.692-.628 4.652 4.652 0 0 1 3.064.849 3.31 3.31 0 0 1 .984 2.646v7.15a.406.406 0 0 1-.468.455h-1.145c-.32 0-.492-.135-.529-.418l-.111-.615a6.16 6.16 0 0 1-1.575.935 4.716 4.716 0 0 1-1.855.356zm.7-1.772a3.688 3.688 0 0 0 1.231-.271 5.475 5.475 0 0 0 1.317-.751v-2.031a9.653 9.653 0 0 0-1.932-.209c-1.477 0-2.2.566-2.2 1.71a1.539 1.539 0 0 0 .418 1.157 1.636 1.636 0 0 0 1.167.395z" class="cls-2" data-name="Path 2251" transform="translate(-1847.981 -1237.509)"/>
        <path id="Path_2252" d="M1987.192 1267.394a.406.406 0 0 1-.468-.468v-14.214a.406.406 0 0 1 .333-.468.4.4 0 0 1 .134 0h1.231a.48.48 0 0 1 .541.411v.008l.135.652a5.578 5.578 0 0 1 1.637-1.034 5.169 5.169 0 0 1 1.883-.357 3.913 3.913 0 0 1 3.15 1.464 6.312 6.312 0 0 1 1.231 4.049 7.667 7.667 0 0 1-.578 3.077 4.7 4.7 0 0 1-1.624 2.018 4.234 4.234 0 0 1-2.375.689 4.849 4.849 0 0 1-1.723-.308 4.451 4.451 0 0 1-1.415-.812v4.824a.406.406 0 0 1-.468.468h-1.625zm4.553-6.153a2.313 2.313 0 0 0 2.018-.923 6.336 6.336 0 0 0 .012-5.575 2.3 2.3 0 0 0-2.03-.849 4.431 4.431 0 0 0-2.547.8v5.772a4.344 4.344 0 0 0 2.547.824z" class="cls-2" data-name="Path 2252" transform="translate(-1904.97 -1237.266)"/>
        <path id="Path_2253" d="M2060.291 1267.394a.407.407 0 0 1-.468-.333.4.4 0 0 1 0-.134v-14.214a.406.406 0 0 1 .333-.468.4.4 0 0 1 .134 0h1.231a.5.5 0 0 1 .554.418l.123.652a5.631 5.631 0 0 1 1.649-1.034 5.054 5.054 0 0 1 1.871-.357 3.913 3.913 0 0 1 3.15 1.464 6.313 6.313 0 0 1 1.231 4.049 7.459 7.459 0 0 1-.578 3.077 4.7 4.7 0 0 1-1.625 2.018 4.208 4.208 0 0 1-2.412.7 4.775 4.775 0 0 1-1.711-.308 4.2 4.2 0 0 1-1.44-.849v4.849a.406.406 0 0 1-.468.468h-1.575zm4.566-6.153a2.289 2.289 0 0 0 2.006-.923 5.928 5.928 0 0 0 .062-5.525 2.289 2.289 0 0 0-2.006-.9 4.42 4.42 0 0 0-2.535.8v5.772a4.3 4.3 0 0 0 2.474.824z" class="cls-2" data-name="Path 2253" transform="translate(-1966.035 -1237.266)"/>
        <path id="Path_2254" d="M2132.166 1263.316a8.74 8.74 0 0 1-3.1-.541.984.984 0 0 1-.431-.271.861.861 0 0 1-.1-.455v-.763c0-.283.1-.431.3-.431a2.854 2.854 0 0 1 .591.135 10.1 10.1 0 0 0 2.72.418 2.979 2.979 0 0 0 1.551-.32 1.158 1.158 0 0 0 .48-1.009.974.974 0 0 0-.3-.751 3.206 3.206 0 0 0-1.1-.591l-1.76-.677a3.114 3.114 0 0 1-2.351-2.966 2.819 2.819 0 0 1 1.1-2.338 4.651 4.651 0 0 1 2.953-.861 8.341 8.341 0 0 1 2.646.443.816.816 0 0 1 .418.246.764.764 0 0 1 .111.48v.738a.6.6 0 0 1-.074.332.308.308 0 0 1-.259.086 3.951 3.951 0 0 1-.541-.1 9.252 9.252 0 0 0-2.154-.32 2.878 2.878 0 0 0-1.44.283 1.009 1.009 0 0 0-.456.9.96.96 0 0 0 .333.763 4.553 4.553 0 0 0 1.231.615l1.551.689a4.243 4.243 0 0 1 1.834 1.169 2.535 2.535 0 0 1 .566 1.711 3.051 3.051 0 0 1-1.145 2.461 4.924 4.924 0 0 1-3.174.925z" class="cls-2" data-name="Path 2254" transform="translate(-2023.436 -1237.237)"/>
        <path id="Path_2255" d="M2186.988 1249.735a3.446 3.446 0 0 1-2.461-.775 3.212 3.212 0 0 1-.812-2.4v-5.907h-1.354a.418.418 0 0 1-.468-.468v-.615a.554.554 0 0 1 .111-.394.6.6 0 0 1 .333-.16l1.464-.209.32-2.572a.5.5 0 0 1 .148-.357.565.565 0 0 1 .381-.111h1.108a.418.418 0 0 1 .468.362.445.445 0 0 1 0 .105v2.461h2.6a.406.406 0 0 1 .468.333.411.411 0 0 1 0 .134v.972a.406.406 0 0 1-.468.468h-2.6v5.723a1.232 1.232 0 0 0 .345 1.021 1.773 1.773 0 0 0 1.231.308 3.393 3.393 0 0 0 .775-.062 2.949 2.949 0 0 1 .492-.061c.234 0 .357.135.357.406v.763a.738.738 0 0 1-.111.468.872.872 0 0 1-.443.234 7.445 7.445 0 0 1-1.884.333z" class="cls-2" data-name="Path 2255" transform="translate(-2068.008 -1223.767)"/>
        <path id="Path_2256" d="M2236.466 1263.165a4.923 4.923 0 0 1-3.84-1.514 7.152 7.152 0 0 1 0-8.442 5.661 5.661 0 0 1 7.679 0 7.153 7.153 0 0 1 0 8.442 4.924 4.924 0 0 1-3.839 1.514zm0-1.969c1.772 0 2.67-1.231 2.67-3.692s-.9-3.692-2.67-3.692-2.671 1.231-2.671 3.692.886 3.696 2.671 3.696z" class="cls-2" data-name="Path 2256" transform="translate(-2109.228 -1237.086)"/>
        <path id="Path_2257" d="M2305.9 1264.261a.406.406 0 0 1-.466-.336.4.4 0 0 1 0-.12v-9.845a.406.406 0 0 1 .333-.468.394.394 0 0 1 .134 0h1.12a.7.7 0 0 1 .418.086.457.457 0 0 1 .16.308l.259 1.231a5.554 5.554 0 0 1 1.587-1.317 3.42 3.42 0 0 1 1.612-.381h.086a1.652 1.652 0 0 1 .455 0 .431.431 0 0 1 .246.185 1.008 1.008 0 0 1 .074.468v1.145c0 .3-.123.443-.381.443h-.825a4.923 4.923 0 0 0-2.781.812v7.384c0 .307-.148.455-.468.455z" class="cls-2" data-name="Path 2257" transform="translate(-2171.207 -1238.502)"/>
        <path id="Path_2258" d="M2353.651 1263.305a5.367 5.367 0 0 1-4.049-1.44 5.883 5.883 0 0 1-1.378-4.2 6.226 6.226 0 0 1 1.354-4.258 4.751 4.751 0 0 1 3.766-1.526 4.282 4.282 0 0 1 3.187 1.132 4.393 4.393 0 0 1 1.108 3.212 12.861 12.861 0 0 1-.1 1.5.65.65 0 0 1-.16.369.441.441 0 0 1-.307.1h-6.535a3.261 3.261 0 0 0 .9 2.363 3.789 3.789 0 0 0 2.584.75 10.024 10.024 0 0 0 2.671-.394l.246-.074h.16c.209 0 .308.135.308.418v.7a.852.852 0 0 1-.086.455.952.952 0 0 1-.443.271 8.625 8.625 0 0 1-3.226.622zm1.785-6.781v-.172a2.981 2.981 0 0 0-.566-1.969 1.969 1.969 0 0 0-1.637-.677 2.461 2.461 0 0 0-1.871.763 3.286 3.286 0 0 0-.824 2.055z" class="cls-2" data-name="Path 2258" transform="translate(-2206.945 -1237.226)"/>
        <path id="Path_2259" d="M1782.211 1183.449a1.747 1.747 0 0 1-1.23-.456 1.562 1.562 0 0 1-.468-1.231 1.587 1.587 0 0 1 .566-1.231 2.326 2.326 0 0 1 1.489-.517 6.169 6.169 0 0 1 1.4.2v-.738a1.12 1.12 0 0 0-.172-.837 1.4 1.4 0 0 0-.923-.246 5.149 5.149 0 0 0-1.538.222l-.32.074c-.086 0-.135-.062-.135-.2v-.3a.31.31 0 0 1 0-.209.333.333 0 0 1 .172-.123 3.959 3.959 0 0 1 .874-.246 6.026 6.026 0 0 1 1.046-.1 2.289 2.289 0 0 1 1.551.443 1.649 1.649 0 0 1 .5 1.329v3.79a.2.2 0 0 1-.169.222.19.19 0 0 1-.053 0h-.468a.222.222 0 0 1-.245-.2v-.383a2.764 2.764 0 0 1-.874.529 2.66 2.66 0 0 1-1.003.208zm.271-.837a2.254 2.254 0 0 0 .763-.148 2.762 2.762 0 0 0 .763-.418v-1.132a5.632 5.632 0 0 0-1.231-.135c-.825 0-1.231.32-1.231.96a.862.862 0 0 0 .234.652.9.9 0 0 0 .701.222z" class="cls-2" data-name="Path 2259" transform="translate(-1732.712 -1175.104)"/>
        <path id="Path_2260" d="M1814.614 1184.153a.346.346 0 0 1-.222 0 1.036 1.036 0 0 1-.16-.258l-1.957-4.922a.6.6 0 0 0 0-.135.443.443 0 0 1 0-.123c0-.1 0-.135.16-.135h.652a.508.508 0 0 1 .234 0 .519.519 0 0 1 .148.259l1.514 4.32 1.5-4.32a.669.669 0 0 1 .086-.3.536.536 0 0 1 .234 0h.615c.111 0 .16 0 .16.135a.433.433 0 0 1 0 .123.612.612 0 0 0 0 .135l-1.944 4.922a.3.3 0 0 1-.16.259.368.368 0 0 1-.221 0z" class="cls-2" data-name="Path 2260" transform="translate(-1759.246 -1175.955)"/>
        <path id="Path_2261" d="M1849.2 1183.451a1.8 1.8 0 0 1-1.231-.455 1.747 1.747 0 0 1 .111-2.461 2.277 2.277 0 0 1 1.538-.517 6.073 6.073 0 0 1 1.391.2v-.738a1.07 1.07 0 0 0-.271-.837 1.353 1.353 0 0 0-.923-.246 5.073 5.073 0 0 0-1.489.222l-.32.074c-.1 0-.135-.062-.135-.2v-.3a.421.421 0 0 1 0-.209.444.444 0 0 1 .185-.123 3.835 3.835 0 0 1 .861-.246 6.175 6.175 0 0 1 1.046-.1 2.326 2.326 0 0 1 1.563.443 1.648 1.648 0 0 1 .554 1.329v3.79a.2.2 0 0 1-.168.221.191.191 0 0 1-.053 0h-.48a.234.234 0 0 1-.246-.209v-.369a2.83 2.83 0 0 1-.886.529 2.663 2.663 0 0 1-1.047.202zm.258-.837a2.161 2.161 0 0 0 .763-.147 2.465 2.465 0 0 0 .763-.418v-1.132a5.492 5.492 0 0 0-1.231-.135q-1.231 0-1.231.96a.911.911 0 0 0 .234.652.948.948 0 0 0 .699.22z" class="cls-2" data-name="Path 2261" transform="translate(-1788.683 -1175.105)"/>
        <path id="Path_2262" d="M1883.972 1165.737a.616.616 0 0 1-.677-.665.7.7 0 0 1 .172-.492.689.689 0 0 1 .5-.185.636.636 0 0 1 .689.677.651.651 0 0 1-.234.431.664.664 0 0 1-.45.234zm-.332 6.609a.2.2 0 0 1-.222-.169.19.19 0 0 1 0-.053v-5.169a.2.2 0 0 1 .169-.221.182.182 0 0 1 .053 0h.664c.135 0 .209.074.209.221v5.169c0 .147-.074.221-.209.221h-.664z" class="cls-2" data-name="Path 2262" transform="translate(-1818.574 -1164.148)"/>
        <path id="Path_2263" d="M1901.163 1171.145a1.23 1.23 0 0 1-.9-.332 1.378 1.378 0 0 1-.308-.972v-6.719a.2.2 0 0 1 .169-.221.19.19 0 0 1 .053 0h.628a.2.2 0 0 1 .222.169.2.2 0 0 1 0 .053v6.658a.6.6 0 0 0 .1.369.492.492 0 0 0 .357.111h.258a.209.209 0 0 1 .16 0 .306.306 0 0 1 0 .16v.357a.318.318 0 0 1 0 .172.332.332 0 0 1-.172.1 2.98 2.98 0 0 1-.567.095z" class="cls-2" data-name="Path 2263" transform="translate(-1832.491 -1162.898)"/>
        <path id="Path_2264" d="M1917.886 1183.451a1.784 1.784 0 0 1-1.231-.455 1.747 1.747 0 0 1 .111-2.461 2.276 2.276 0 0 1 1.551-.492 6.156 6.156 0 0 1 1.391.2v-.738a1.071 1.071 0 0 0-.271-.837 1.4 1.4 0 0 0-.923-.246 5.213 5.213 0 0 0-1.5.222l-.32.074c-.086 0-.123-.062-.123-.2v-.32a.422.422 0 0 1 0-.209.37.37 0 0 1 .185-.123 3.834 3.834 0 0 1 .861-.246 6.163 6.163 0 0 1 1.046-.1 2.29 2.29 0 0 1 1.551.443 1.649 1.649 0 0 1 .5 1.329v3.79a.2.2 0 0 1-.169.221.191.191 0 0 1-.053 0h-.48a.234.234 0 0 1-.246-.209v-.369a2.978 2.978 0 0 1-.886.529 2.667 2.667 0 0 1-.994.197zm.271-.837a2.2 2.2 0 0 0 .763-.148 2.578 2.578 0 0 0 .763-.418v-1.132a5.492 5.492 0 0 0-1.231-.135q-1.23 0-1.231.96a.861.861 0 0 0 .234.652.949.949 0 0 0 .702.221z" class="cls-2" data-name="Path 2264" transform="translate(-1846.064 -1175.105)"/>
        <path id="Path_2265" d="M1955.391 1171.22a2.536 2.536 0 0 1-1.784-.714l-.074.369a.234.234 0 0 1-.245.223h-.481a.2.2 0 0 1-.222-.169.191.191 0 0 1 0-.053v-7.753a.2.2 0 0 1 .169-.222.192.192 0 0 1 .053 0h.652a.2.2 0 0 1 .222.169.2.2 0 0 1 0 .053v2.892a2.708 2.708 0 0 1 1.784-.7 2.043 2.043 0 0 1 1.7.775 3.3 3.3 0 0 1 .628 2.129 3.336 3.336 0 0 1-.714 2.191 2.081 2.081 0 0 1-1.688.81zm-.259-.886c1.021 0 1.538-.689 1.538-2.068a2.683 2.683 0 0 0-.369-1.551 1.354 1.354 0 0 0-1.145-.5 2.461 2.461 0 0 0-1.477.5v3.077a2.337 2.337 0 0 0 1.454.542z" class="cls-2" data-name="Path 2265" transform="translate(-1876.456 -1162.899)"/>
        <path id="Path_2266" d="M1992.575 1171.145a1.231 1.231 0 0 1-.9-.332 1.379 1.379 0 0 1-.308-.972v-6.719a.2.2 0 0 1 .169-.221.19.19 0 0 1 .053 0h.652a.2.2 0 0 1 .221.169.181.181 0 0 1 0 .053v6.658a.53.53 0 0 0 .111.369.444.444 0 0 0 .345.111h.406a.306.306 0 0 1 0 .16v.357a.318.318 0 0 1 0 .172.333.333 0 0 1-.172.1 3 3 0 0 1-.577.095z" class="cls-2" data-name="Path 2266" transform="translate(-1908.852 -1162.898)"/>
        <path id="Path_2267" d="M2010.63 1183.477a2.682 2.682 0 0 1-2.068-.751 3.829 3.829 0 0 1 0-4.418 2.461 2.461 0 0 1 1.957-.775 2.129 2.129 0 0 1 1.612.591 2.326 2.326 0 0 1 .566 1.686 4.835 4.835 0 0 1 0 .714.333.333 0 0 1 0 .172.246.246 0 0 1-.172 0h-3.618a1.981 1.981 0 0 0 .492 1.452 1.859 1.859 0 0 0 1.391.455 5.488 5.488 0 0 0 .64 0 6.417 6.417 0 0 0 .763-.2h.234c.1 0 .148.061.148.2v.308a.311.311 0 0 1 0 .209.4.4 0 0 1-.185.123 3.7 3.7 0 0 1-.787.234 4.687 4.687 0 0 1-.973 0zm1.058-3.458a1.835 1.835 0 0 0 0-.3 1.49 1.49 0 0 0-.32-1.021 1.232 1.232 0 0 0-.923-.332 1.415 1.415 0 0 0-1.083.406 1.969 1.969 0 0 0-.443 1.231z" class="cls-2" data-name="Path 2267" transform="translate(-1922.625 -1175.119)"/>
        <path id="Path_2268" d="M2060.5 1183.451a1.784 1.784 0 0 1-1.231-.455 1.747 1.747 0 0 1 .111-2.461 2.275 2.275 0 0 1 1.55-.492 6.154 6.154 0 0 1 1.391.2v-.738a1.07 1.07 0 0 0-.271-.837 1.4 1.4 0 0 0-.923-.246 5.155 5.155 0 0 0-1.5.222l-.32.074c-.086 0-.135-.062-.135-.2v-.32a.4.4 0 0 1 0-.209.37.37 0 0 1 .185-.123 3.835 3.835 0 0 1 .862-.246 6.159 6.159 0 0 1 1.046-.1 2.29 2.29 0 0 1 1.551.443 1.65 1.65 0 0 1 .5 1.329v3.79a.2.2 0 0 1-.169.221.191.191 0 0 1-.053 0h-.48a.234.234 0 0 1-.246-.209v-.369a2.973 2.973 0 0 1-.886.529 2.667 2.667 0 0 1-.982.197zm.271-.837a2.2 2.2 0 0 0 .763-.148 2.583 2.583 0 0 0 .763-.418v-1.132a5.494 5.494 0 0 0-1.231-.135q-1.23 0-1.23.96a.861.861 0 0 0 .234.652.948.948 0 0 0 .7.221z" class="cls-2" data-name="Path 2268" transform="translate(-1965.196 -1175.105)"/>
        <path id="Path_2269" d="M2093.749 1176.227a1.39 1.39 0 0 1-1.575-1.177 1.374 1.374 0 0 1 0-.4v-3.25h-.788a.2.2 0 0 1-.222-.169.19.19 0 0 1 0-.053v-.283a.211.211 0 0 1 0-.16.368.368 0 0 1 .185-.086l.849-.111.147-1.366a.21.21 0 0 1 .2-.223.229.229 0 0 1 .039 0h.455a.2.2 0 0 1 .222.169.19.19 0 0 1 0 .053v1.366h1.44a.209.209 0 0 1 .233.183.187.187 0 0 1 0 .039v.419a.209.209 0 0 1-.195.223.231.231 0 0 1-.039 0h-1.44v3.2a.763.763 0 0 0 .184.578.936.936 0 0 0 .628.16 2.811 2.811 0 0 0 .517 0h.344a.28.28 0 0 1 .049.123v.3a.514.514 0 0 1 0 .222.331.331 0 0 1-.185.111 3.529 3.529 0 0 1-1.048.132z" class="cls-2" data-name="Path 2269" transform="translate(-1992.207 -1167.955)"/>
    </g>
</svg>
