<svg xmlns="http://www.w3.org/2000/svg" id="Component_2_11" width="192" height="49.226" data-name="Component 2 – 11" viewBox="0 0 192 49.226">
    <defs>
        <style>
            .cls-2{fill:#fff}
        </style>
    </defs>
    <path id="Path_2235" d="M1369.884 758.344h179.694a6.153 6.153 0 0 1 6.153 6.153v36.919a6.153 6.153 0 0 1-6.153 6.153h-179.694a6.153 6.153 0 0 1-6.153-6.153V764.5a6.153 6.153 0 0 1 6.153-6.156z" data-name="Path 2235" transform="translate(-1363.731 -758.344)"/>
    <path id="Path_2236" fill="#a6a6a6" d="M1549.578 759.329a5.169 5.169 0 0 1 5.169 5.169v36.919a5.169 5.169 0 0 1-5.169 5.169h-179.694a5.169 5.169 0 0 1-5.169-5.169V764.5a5.169 5.169 0 0 1 5.169-5.169h179.694m0-.984h-179.694a6.153 6.153 0 0 0-6.153 6.153v36.919a6.153 6.153 0 0 0 6.153 6.153h179.694a6.153 6.153 0 0 0 6.153-6.153V764.5a6.153 6.153 0 0 0-6.153-6.156z" data-name="Path 2236" transform="translate(-1363.731 -758.344)"/>
    <g id="Group_3812" data-name="Group 3812" transform="translate(35.319 8.376)">
        <path id="Path_2237" d="M1597.535 824.32a6.466 6.466 0 0 1 3.069-5.416 6.651 6.651 0 0 0-5.205-2.818c-2.186-.231-4.312 1.314-5.426 1.314-1.133 0-2.858-1.284-4.7-1.254a6.917 6.917 0 0 0-5.827 3.56c-2.517 4.363-.642 10.781 1.775 14.311 1.213 1.725 2.618 3.661 4.473 3.59 1.805-.07 2.487-1.153 4.663-1.153s2.8 1.153 4.683 1.113c1.945-.03 3.159-1.735 4.333-3.48a14.151 14.151 0 0 0 1.976-4.032 6.255 6.255 0 0 1-3.811-5.737m-3.56-10.55a6.363 6.363 0 0 0 1.454-4.553 6.45 6.45 0 0 0-4.182 2.166 6.1 6.1 0 0 0-1.494 4.383 5.345 5.345 0 0 0 4.222-2m29.756 23.588h-2.534l-1.384-4.353h-4.814l-1.314 4.353h-2.457l4.769-14.807h2.948zm-4.322-6.178l-1.254-3.861c-.13-.4-.381-1.324-.742-2.788h-.05c-.15.632-.381 1.565-.7 2.788l-1.234 3.861zm16.568.712a6.015 6.015 0 0 1-1.484 4.3 4.323 4.323 0 0 1-3.29 1.4 3.294 3.294 0 0 1-3.049-1.514v5.606h-2.377v-11.5c0-1.143-.03-2.307-.09-3.51h2.086l.13 1.695h.04a4.212 4.212 0 0 1 6.749-.421 5.811 5.811 0 0 1 1.284 3.941zm-2.417.08a4.359 4.359 0 0 0-.7-2.567 2.431 2.431 0 0 0-2.066-1.053 2.521 2.521 0 0 0-1.595.582 2.686 2.686 0 0 0-.933 1.524 3.255 3.255 0 0 0-.11.722v1.785a2.871 2.871 0 0 0 .712 1.966 2.369 2.369 0 0 0 1.855.8 2.449 2.449 0 0 0 2.086-1.033 4.531 4.531 0 0 0 .747-2.72zm14.692-.08a6.016 6.016 0 0 1-1.484 4.3 4.324 4.324 0 0 1-3.29 1.4 3.294 3.294 0 0 1-3.049-1.514v5.606h-2.377v-11.5c0-1.143-.03-2.307-.09-3.51h2.086l.13 1.695h.04a4.212 4.212 0 0 1 6.749-.421 5.81 5.81 0 0 1 1.284 3.941zm-2.417.08a4.359 4.359 0 0 0-.7-2.567 2.431 2.431 0 0 0-2.066-1.053 2.521 2.521 0 0 0-1.595.582 2.741 2.741 0 0 0-.933 1.524 3.255 3.255 0 0 0-.11.722v1.785a2.871 2.871 0 0 0 .712 1.966 2.37 2.37 0 0 0 1.855.8 2.436 2.436 0 0 0 2.086-1.033 4.463 4.463 0 0 0 .747-2.72zm16.156 1.234a3.966 3.966 0 0 1-1.314 3.079 5.831 5.831 0 0 1-4.032 1.294 7.054 7.054 0 0 1-3.831-.923l.552-1.976a6.661 6.661 0 0 0 3.43.923 3.229 3.229 0 0 0 2.086-.6 1.965 1.965 0 0 0 .752-1.615 2.088 2.088 0 0 0-.612-1.514 5.725 5.725 0 0 0-2.046-1.143c-2.618-.973-3.911-2.387-3.911-4.242a3.763 3.763 0 0 1 1.374-2.989 5.45 5.45 0 0 1 3.64-1.163 7.156 7.156 0 0 1 3.36.7l-.6 1.926a5.92 5.92 0 0 0-2.848-.682 2.956 2.956 0 0 0-1.966.612 1.78 1.78 0 0 0-.592 1.344 1.8 1.8 0 0 0 .682 1.444 7.654 7.654 0 0 0 2.156 1.143 7.229 7.229 0 0 1 2.808 1.805 3.752 3.752 0 0 1 .912 2.577m7.863-4.744h-2.617v5.185c0 1.314.461 1.976 1.384 1.976a4.406 4.406 0 0 0 1.053-.11l.07 1.805a5.5 5.5 0 0 1-1.845.261 2.84 2.84 0 0 1-2.2-.862 4.187 4.187 0 0 1-.792-2.878v-5.385h-1.554v-1.775h1.554v-1.956l2.327-.7v2.658h2.617zm11.774 3.47a5.867 5.867 0 0 1-1.4 4.042 5.026 5.026 0 0 1-3.911 1.625 4.813 4.813 0 0 1-3.751-1.555 5.646 5.646 0 0 1-1.394-3.931 5.825 5.825 0 0 1 1.434-4.062 5.005 5.005 0 0 1 3.881-1.585 4.88 4.88 0 0 1 3.781 1.565 5.574 5.574 0 0 1 1.364 3.9zm-2.457.05a4.789 4.789 0 0 0-.632-2.517 2.462 2.462 0 0 0-4.312 0 5.43 5.43 0 0 0 0 5.085 2.436 2.436 0 0 0 4.292-.02 4.86 4.86 0 0 0 .652-2.547zm10.179-3.219a4.406 4.406 0 0 0-.752-.06 2.239 2.239 0 0 0-1.935.943 3.577 3.577 0 0 0-.592 2.106v5.606h-2.377v-7.321c0-1.234-.02-2.357-.07-3.36h2.066l.09 2.046h.07a3.641 3.641 0 0 1 1.183-1.695 2.887 2.887 0 0 1 1.715-.572 4.988 4.988 0 0 1 .592.04zm10.611 2.748a5.445 5.445 0 0 1-.09 1.073h-7.121a3.1 3.1 0 0 0 1.033 2.417 3.556 3.556 0 0 0 2.327.742 7.988 7.988 0 0 0 2.878-.5l.371 1.645a8.91 8.91 0 0 1-3.58.662 5.187 5.187 0 0 1-3.9-1.464 5.406 5.406 0 0 1-1.414-3.921 6.127 6.127 0 0 1 1.324-4.021 4.544 4.544 0 0 1 3.731-1.715 3.963 3.963 0 0 1 3.49 1.715 5.8 5.8 0 0 1 .953 3.37zm-2.266-.612a3.2 3.2 0 0 0-.461-1.825 2.07 2.07 0 0 0-1.885-.993 2.254 2.254 0 0 0-1.885.963 3.566 3.566 0 0 0-.7 1.845z" class="cls-2" data-name="Path 2237" transform="translate(-1578.247 -809.217)"/>
        <path id="Path_2238" d="M1790.11 819.133h-1.244l-.682-2.136h-2.367l-.652 2.136h-1.2l2.337-7.281h1.444zm-2.136-3.039l-.612-1.905c-.06-.191-.181-.652-.371-1.374h-.02c-.08.311-.18.762-.351 1.374l-.6 1.905zm7.993-2.216l-1.986 5.255h-1.133l-1.926-5.255h1.254l.893 2.778c.15.461.281.9.381 1.324h.03c.09-.381.221-.822.381-1.324l.883-2.778zm4.232 5.255l-.09-.6h-.03a1.805 1.805 0 0 1-1.534.722 1.523 1.523 0 0 1-1.6-1.544c0-1.294 1.123-1.966 3.069-1.966v-.1c0-.692-.371-1.033-1.093-1.033a2.449 2.449 0 0 0-1.374.391l-.241-.762a3.372 3.372 0 0 1 1.805-.451c1.374 0 2.066.722 2.066 2.176v1.934a6.991 6.991 0 0 0 .08 1.254zm-.16-2.618c-1.294 0-1.946.311-1.946 1.063a.744.744 0 0 0 .8.822 1.116 1.116 0 0 0 1.143-1.073zm3.731-3.5a.7.7 0 1 1 .732-.7.683.683 0 0 1-.732.7zm-.562.862h1.163v5.245h-1.163zm3.239-2.407h1.163v7.652h-1.163zm6.118 7.662l-.09-.6h-.03a1.806 1.806 0 0 1-1.535.722 1.523 1.523 0 0 1-1.6-1.544c0-1.294 1.123-1.966 3.069-1.966v-.1c0-.692-.371-1.033-1.093-1.033a2.449 2.449 0 0 0-1.374.391l-.241-.772a3.373 3.373 0 0 1 1.805-.451c1.374 0 2.066.722 2.066 2.176v1.936a8.267 8.267 0 0 0 .07 1.254h-1.043zm-.16-2.618c-1.294 0-1.946.311-1.946 1.063a.744.744 0 0 0 .8.822 1.116 1.116 0 0 0 1.143-1.073zm5.867 2.738a1.787 1.787 0 0 1-1.655-.933h-.02l-.07.812h-.993c.03-.421.04-.893.04-1.414v-6.248h1.173v3.179h.02a1.8 1.8 0 0 1 1.675-.873c1.264 0 2.146 1.083 2.146 2.658 0 1.625-.983 2.818-2.317 2.818zm-.241-4.563a1.339 1.339 0 0 0-1.284 1.394v.923a1.282 1.282 0 0 0 1.264 1.314c.872 0 1.394-.712 1.394-1.845-.005-1.063-.543-1.785-1.375-1.785zm4.282-3.219h1.163v7.652h-1.163zm7.511 5.315h-3.5a1.507 1.507 0 0 0 1.655 1.554 3.946 3.946 0 0 0 1.414-.251l.18.812a4.252 4.252 0 0 1-1.755.321 2.437 2.437 0 0 1-2.617-2.648 2.564 2.564 0 0 1 2.487-2.818 2.211 2.211 0 0 1 2.186 2.5 2.026 2.026 0 0 1-.05.532zm-1.063-.832c0-.812-.411-1.384-1.153-1.384a1.384 1.384 0 0 0-1.274 1.384zm8.133 3.3a2.5 2.5 0 0 1-2.527-2.7 2.556 2.556 0 0 1 2.618-2.778 2.477 2.477 0 0 1 2.527 2.688 2.575 2.575 0 0 1-2.618 2.788zm.05-4.623c-.842 0-1.384.792-1.384 1.885s.552 1.865 1.374 1.865 1.374-.842 1.374-1.9-.542-1.855-1.364-1.855zm8.835 4.5h-1.163v-3.019c0-.933-.361-1.394-1.063-1.394a1.207 1.207 0 0 0-1.163 1.283v3.119h-1.163v-3.741c0-.461-.01-.963-.04-1.5h1.023l.05.812h.03a1.888 1.888 0 0 1 1.665-.923c1.1 0 1.825.843 1.825 2.216zm7.632-4.373h-1.283v2.547c0 .652.231.973.682.973a2.552 2.552 0 0 0 .521-.05l.03.883a2.529 2.529 0 0 1-.9.13c-.923 0-1.464-.511-1.464-1.835v-2.645h-.762v-.873h.762v-.963l1.143-.351v1.3h1.284v.883m6.168 4.373h-1.163v-3c0-.943-.361-1.414-1.063-1.414a1.143 1.143 0 0 0-1.163 1.244v3.159h-1.163v-7.652h1.163v3.149h.02a1.764 1.764 0 0 1 1.574-.853c1.113 0 1.8.863 1.8 2.237zm5.957-2.347h-3.5a1.507 1.507 0 0 0 1.655 1.554 3.948 3.948 0 0 0 1.414-.251l.18.812a4.253 4.253 0 0 1-1.755.321 2.437 2.437 0 0 1-2.618-2.648 2.565 2.565 0 0 1 2.487-2.818 2.211 2.211 0 0 1 2.186 2.5 2.026 2.026 0 0 1-.05.532zm-1.063-.832c0-.812-.411-1.384-1.153-1.384a1.376 1.376 0 0 0-1.273 1.384z" class="cls-2" data-name="Path 2238" transform="translate(-1750.092 -811.1)"/>
    </g>
</svg>
