<svg xmlns="http://www.w3.org/2000/svg" id="Component_4_11" width="192" height="49.225" data-name="Component 4 – 11" viewBox="0 0 192 49.225">
    <defs>
        <style>
            .cls-2{fill:#fff}
        </style>
    </defs>
    <path id="Path_2270" d="M1369.884 1479.926h179.694a6.153 6.153 0 0 1 6.153 6.153V1523a6.153 6.153 0 0 1-6.153 6.153h-179.694a6.153 6.153 0 0 1-6.153-6.153v-36.919a6.153 6.153 0 0 1 6.153-6.155z" data-name="Path 2270" transform="translate(-1363.731 -1479.926)"/>
    <path id="Path_2271" fill="#a6a6a6" d="M1549.578 1480.911a5.169 5.169 0 0 1 5.169 5.169V1523a5.169 5.169 0 0 1-5.169 5.169h-179.694a5.169 5.169 0 0 1-5.169-5.169v-36.919a5.169 5.169 0 0 1 5.169-5.169h179.694m0-.984h-179.694a6.153 6.153 0 0 0-6.153 6.153V1523a6.153 6.153 0 0 0 6.153 6.153h179.694a6.153 6.153 0 0 0 6.153-6.153v-36.919a6.153 6.153 0 0 0-6.153-6.155z" data-name="Path 2271" transform="translate(-1363.731 -1479.926)"/>
    <g id="Group_3816" data-name="Group 3816" transform="translate(34.172 10.563)">
        <path id="Path_2272" d="M1571.282 1549.351v-4.171a1.1 1.1 0 0 1 1.1-1.1h4.171a1.1 1.1 0 0 1 0 2.2h-3.073v3.073a1.1 1.1 0 0 1-2.2 0zm27-5.269h-4.171a1.1 1.1 0 0 0 0 2.2h3.073v3.073a1.1 1.1 0 1 0 2.2 0v-4.171a1.1 1.1 0 0 0-1.1-1.102zm-21.733 25.9h-3.073v-3.073a1.1 1.1 0 0 0-2.2 0v4.171a1.1 1.1 0 0 0 1.1 1.1h4.171a1.1 1.1 0 0 0 0-2.2zm21.733-4.171a1.1 1.1 0 0 0-1.1 1.1v3.073h-3.073a1.1 1.1 0 0 0 0 2.2h4.171a1.1 1.1 0 0 0 1.1-1.1v-4.171a1.1 1.1 0 0 0-1.096-1.098zm-13.912-16.327v6.586a1.1 1.1 0 0 1-1.1 1.1h-6.586a1.1 1.1 0 0 1-1.1-1.1v-6.586a1.1 1.1 0 0 1 1.1-1.1h6.586a1.1 1.1 0 0 1 1.101 1.104zm-2.2 1.1h-4.391v4.391h4.391zm12.348 6.586h-6.586a1.1 1.1 0 0 1-1.1-1.1v-6.586a1.1 1.1 0 0 1 1.1-1.1h6.586a1.1 1.1 0 0 1 1.1 1.1v6.586a1.1 1.1 0 0 1-1.093 1.101zm-1.1-6.586h-4.39v4.391h4.39zm-9.055 10.153v6.586a1.1 1.1 0 0 1-1.1 1.1h-6.586a1.1 1.1 0 0 1-1.1-1.1v-6.586a1.1 1.1 0 0 1 1.1-1.1h6.586a1.1 1.1 0 0 1 1.108 1.102zm-2.2 1.1h-4.391v4.391h4.391zm10.935 5.173h-3.76a1.1 1.1 0 0 1-1.1-1.1v-3.759a1.1 1.1 0 0 1 1.1-1.1h3.76a1.1 1.1 0 0 1 1.1 1.1v3.759a1.1 1.1 0 0 1-1.087 1.099zm-1.1-3.759h-1.564v1.564h1.564z" class="cls-2" data-name="Path 2272" transform="translate(-1571.282 -1544.082)"/>
        <g id="Group_3815" data-name="Group 3815" transform="translate(46.866 7.702)">
            <path id="Path_2273" d="M1869.308 1603.25h-7.1a5.916 5.916 0 0 1-6.279-6.194 6.271 6.271 0 0 1 12.542 0 5.415 5.415 0 0 1-2.491 4.744v.034h3.327zm-7.1-1.485a4.716 4.716 0 1 0-4.454-4.709 4.436 4.436 0 0 0 4.455 4.71z" class="cls-2" data-name="Path 2273" transform="translate(-1855.93 -1590.862)"/>
            <path id="Path_2274" d="M1949.024 1604.808h-1.689v-12.081h3.873c2.338 0 4.3.887 4.3 3.345a3.182 3.182 0 0 1-2.935 3.191l3.379 5.546h-2.052l-3.072-5.375h-1.809zm0-6.791h1.945c1.587 0 2.833-.495 2.833-1.945s-1.246-1.911-2.713-1.911h-2.065z" class="cls-2" data-name="Path 2274" transform="translate(-1932.286 -1592.42)"/>
            <path id="Path_2275" d="M2044.114 1601.373a5.5 5.5 0 0 1-4.607 2.184 6.348 6.348 0 1 1 .068-12.7 5.454 5.454 0 0 1 4.334 1.877l-1.331 1.024a3.769 3.769 0 0 0-3-1.416 4.579 4.579 0 0 0-4.59 4.846c0 2.713 1.757 4.863 4.539 4.863a3.822 3.822 0 0 0 3.242-1.6z" class="cls-2" data-name="Path 2275" transform="translate(-2003.965 -1590.862)"/>
            <path id="Path_2276" d="M2111.652 1603.557a6.348 6.348 0 1 1 6.416-6.365 6.163 6.163 0 0 1-6.416 6.365zm0-11.211a4.853 4.853 0 1 0 4.59 4.846 4.562 4.562 0 0 0-4.59-4.845z" class="cls-2" data-name="Path 2276" transform="translate(-2064.217 -1590.862)"/>
            <path id="Path_2277" d="M2196.986 1592.727h4.146c3.089 0 6.518 1.758 6.518 6.041 0 4.129-3.43 6.04-6.518 6.04h-4.146zm1.689 10.6h2.116c2.918 0 5.051-1.672 5.051-4.556 0-2.986-2.133-4.573-5.051-4.573h-2.116z" class="cls-2" data-name="Path 2277" transform="translate(-2140.833 -1592.42)"/>
            <path id="Path_2278" d="M2277.539 1603.307h6.314v1.5h-8v-12.081h7.746v1.485h-6.057v3.618h5.7v1.45h-5.7z" class="cls-2" data-name="Path 2278" transform="translate(-2206.712 -1592.42)"/>
        </g>
    </g>
</svg>
