<svg xmlns="http://www.w3.org/2000/svg" id="Component_3_11" width="192" height="49.226" data-name="Component 3 – 11" viewBox="0 0 192 49.226">
    <defs>
        <linearGradient id="linear-gradient" x1="-12.869" x2="-12.939" y1="-.302" y2="-.266" gradientUnits="objectBoundingBox">
            <stop offset="0" stop-color="#00a0ff"/>
            <stop offset=".007" stop-color="#00a1ff"/>
            <stop offset=".26" stop-color="#00beff"/>
            <stop offset=".512" stop-color="#00d2ff"/>
            <stop offset=".76" stop-color="#00dfff"/>
            <stop offset="1" stop-color="#00e3ff"/>
        </linearGradient>
        <linearGradient id="linear-gradient-2" x1="-17.69" x2="-17.818" y1="-1.793" y2="-1.793" gradientUnits="objectBoundingBox">
            <stop offset="0" stop-color="#ffe000"/>
            <stop offset=".409" stop-color="#ffbd00"/>
            <stop offset=".775" stop-color="orange"/>
            <stop offset="1" stop-color="#ff9c00"/>
        </linearGradient>
        <linearGradient id="linear-gradient-3" x1="-10.032" x2="-10.106" y1="-1.499" y2="-1.404" gradientUnits="objectBoundingBox">
            <stop offset="0" stop-color="#ff3a44"/>
            <stop offset="1" stop-color="#c31162"/>
        </linearGradient>
        <linearGradient id="linear-gradient-4" x1="-10.089" x2="-10.056" y1="-.599" y2="-.556" gradientUnits="objectBoundingBox">
            <stop offset="0" stop-color="#32a071"/>
            <stop offset=".069" stop-color="#2da771"/>
            <stop offset=".476" stop-color="#15cf74"/>
            <stop offset=".801" stop-color="#06e775"/>
            <stop offset="1" stop-color="#00f076"/>
        </linearGradient>
        <style>
            .cls-2{fill:#fff}
        </style>
    </defs>
    <path id="Path_2224" d="M1369.884 397.877h179.694a6.153 6.153 0 0 1 6.153 6.153v36.919a6.153 6.153 0 0 1-6.153 6.153h-179.694a6.153 6.153 0 0 1-6.153-6.153V404.03a6.153 6.153 0 0 1 6.153-6.153z" data-name="Path 2224" transform="translate(-1363.731 -397.877)"/>
    <path id="Path_2225" fill="#a6a6a6" d="M1549.578 398.863a5.169 5.169 0 0 1 5.169 5.169v36.918a5.169 5.169 0 0 1-5.169 5.169h-179.694a5.169 5.169 0 0 1-5.169-5.169v-36.919a5.169 5.169 0 0 1 5.169-5.169h179.694m0-.984h-179.694a6.153 6.153 0 0 0-6.153 6.153v36.919a6.153 6.153 0 0 0 6.153 6.153h179.694a6.153 6.153 0 0 0 6.153-6.153v-36.919a6.153 6.153 0 0 0-6.153-6.153z" data-name="Path 2225" transform="translate(-1363.731 -397.878)"/>
    <g id="Group_3810" data-name="Group 3810" transform="translate(27.712 8.669)">
        <path id="Path_2226" d="M1787.545 528.292a4.979 4.979 0 0 0-5.089 5.089 5.051 5.051 0 0 0 5.089 5.089 4.979 4.979 0 0 0 5.089-5.089 4.91 4.91 0 0 0-5.089-5.089zm0 8.047a3.087 3.087 0 0 1 0-6.154 2.867 2.867 0 0 1 2.84 3.077 2.938 2.938 0 0 1-2.84 3.078zm-11.006-8.047a4.979 4.979 0 0 0-5.089 5.089 5.051 5.051 0 0 0 5.089 5.089 4.979 4.979 0 0 0 5.089-5.089 4.91 4.91 0 0 0-5.089-5.089zm0 8.047a3.087 3.087 0 0 1 0-6.154 2.867 2.867 0 0 1 2.84 3.077 2.937 2.937 0 0 1-2.84 3.078zm-13.136-6.509v2.13h5.089a4.474 4.474 0 0 1-1.184 2.722 5.237 5.237 0 0 1-3.905 1.539 5.51 5.51 0 0 1-5.562-5.681 5.582 5.582 0 0 1 5.562-5.681 5.867 5.867 0 0 1 3.905 1.538l1.539-1.538a7.584 7.584 0 0 0-5.326-2.13 7.812 7.812 0 1 0 0 15.622 6.81 6.81 0 0 0 5.444-2.249 7.124 7.124 0 0 0 1.894-4.97 4.434 4.434 0 0 0-.118-1.3zm53.729 1.657a4.6 4.6 0 0 0-4.26-3.2 4.766 4.766 0 0 0-4.734 5.089 4.953 4.953 0 0 0 4.97 5.089 4.855 4.855 0 0 0 4.142-2.249l-1.657-1.183a2.885 2.885 0 0 1-2.485 1.42 2.567 2.567 0 0 1-2.485-1.538l6.746-2.84-.237-.592zm-6.864 1.657a2.875 2.875 0 0 1 2.6-2.959 2.093 2.093 0 0 1 1.894 1.065l-4.5 1.894zm-5.562 4.856h2.248v-14.8h-2.248zm-3.551-8.639a3.9 3.9 0 0 0-2.722-1.183 5.085 5.085 0 0 0-4.852 5.089 4.9 4.9 0 0 0 4.852 4.97 3.4 3.4 0 0 0 2.6-1.183h.118v.71c0 1.894-1.065 2.959-2.722 2.959a2.629 2.629 0 0 1-2.485-1.775l-1.894.828a4.882 4.882 0 0 0 4.5 2.959c2.6 0 4.734-1.538 4.734-5.207v-8.994h-2.13v.829zm-2.6 6.982a3.087 3.087 0 0 1 0-6.154 3.1 3.1 0 0 1 0 6.154zm28.876-13.136h-5.331V538h2.249v-5.562h3.077a4.621 4.621 0 1 0 0-9.231zm.118 7.1h-3.2v-5.089h3.2a2.6 2.6 0 0 1 2.6 2.485 2.708 2.708 0 0 1-2.6 2.6zm13.61-2.13a3.978 3.978 0 0 0-3.905 2.249l2.012.828a2.091 2.091 0 0 1 2.012-1.065 2.224 2.224 0 0 1 2.367 1.894v.118a4.693 4.693 0 0 0-2.248-.592c-2.13 0-4.261 1.183-4.261 3.314a3.467 3.467 0 0 0 3.669 3.314 3.33 3.33 0 0 0 2.84-1.42h.118V538h2.13v-5.681a4.479 4.479 0 0 0-4.734-4.142zm-.237 8.166c-.71 0-1.775-.355-1.775-1.3 0-1.183 1.3-1.539 2.367-1.539a4.575 4.575 0 0 1 2.012.474 2.756 2.756 0 0 1-2.607 2.362zm12.426-7.811l-2.485 6.391h-.118l-2.6-6.391h-2.367l3.905 8.994-2.249 4.971h2.249l6.036-13.965zM1833.464 538h2.249v-14.8h-2.249z" class="cls-2" data-name="Path 2226" transform="translate(-1718.786 -510.842)"/>
        <path id="Path_2227" fill="url(#linear-gradient)" d="M1532.521 453.726a2.314 2.314 0 0 0-.474 1.657v26.154a2.342 2.342 0 0 0 .592 1.657l.118.118 14.675-14.675v-.237z" data-name="Path 2227" transform="translate(-1532.047 -453.199)"/>
        <path id="Path_2228" fill="url(#linear-gradient-2)" d="M1629.623 523.445l-4.852-4.852v-.355l4.852-4.852.118.118 5.8 3.314c1.657.947 1.657 2.485 0 3.432z" data-name="Path 2228" transform="translate(-1609.504 -503.037)"/>
        <path id="Path_2229" fill="url(#linear-gradient-3)" d="M1554.686 548.546l-4.97-4.971-14.793 14.793c.592.592 1.42.592 2.485.118l17.278-9.941" data-name="Path 2229" transform="translate(-1534.448 -528.255)"/>
        <path id="Path_2230" fill="url(#linear-gradient-4)" d="M1554.686 461.575l-17.278-9.823a1.919 1.919 0 0 0-2.485.118l14.793 14.675 4.97-4.97z" data-name="Path 2230" transform="translate(-1534.448 -451.226)"/>
        <path id="Path_2231" d="M1554.568 573.046l-17.16 9.7a1.936 1.936 0 0 1-2.367 0l-.119.118.119.118a1.935 1.935 0 0 0 2.367 0z" data-name="Path 2231" transform="translate(-1534.448 -552.874)" style="isolation:isolate" opacity="0.2"/>
        <path id="Path_2232" d="M1532.521 558.132a2.314 2.314 0 0 1-.474-1.657v.118a2.342 2.342 0 0 0 .592 1.657v-.118zm25.563-13.018l-5.917 3.314.118.118 5.8-3.314a1.968 1.968 0 0 0 1.183-1.657c-.001.592-.475 1.065-1.185 1.539z" data-name="Path 2232" transform="translate(-1532.047 -528.255)" style="isolation:isolate" opacity="0.12"/>
        <path id="Path_2233" fill="#fff" d="M1535.006 451.726l23.078 13.136c.71.473 1.183.947 1.183 1.538a1.968 1.968 0 0 0-1.183-1.657l-23.078-13.136c-1.657-.947-2.959-.237-2.959 1.657v.118c0-1.774 1.302-2.602 2.959-1.656z" data-name="Path 2233" transform="translate(-1532.047 -451.081)" style="isolation:isolate" opacity="0.25"/>
        <path id="Path_2234" d="M1749.374 453.889a3.4 3.4 0 0 1 3.665-3.362 3.34 3.34 0 0 1 2.806 1.345l-.994.536a2.364 2.364 0 1 0-1.812 3.829 2.614 2.614 0 0 0 1.655-.584v-1h-2.094v-1h3.309v2.426a3.9 3.9 0 0 1-2.87 1.189 3.414 3.414 0 0 1-3.665-3.371zm8.118 3.272v-6.535h4.851v1.01h-3.609v1.684h3.535v1.009h-3.535v1.822h3.609v1.009zm8.15 0v-5.525h-2.111v-1.01h5.445v1.01h-2.111v5.525zm7.69-6.535h1.188v6.535h-1.188zm4.587 6.535v-5.525h-2.112v-1.01h5.445v1.01h-2.11v5.525zm7.392-3.267a3.623 3.623 0 1 1 3.614 3.366 3.373 3.373 0 0 1-3.613-3.366zm5.94-.05a2.327 2.327 0 1 0-2.326 2.327 2.224 2.224 0 0 0 2.327-2.327zm7.531 3.317l-3.636-4.673v4.673h-1.222v-6.535h1.254l3.563 4.527v-4.527h1.223v6.535z" class="cls-2" data-name="Path 2234" transform="translate(-1713.592 -450.527)"/>
    </g>
</svg>
