<svg xmlns="http://www.w3.org/2000/svg" width="138.861" height="138.861" viewBox="0 0 138.861 138.861">
    <path id="prefix__account-circle" d="M71.431 121.421A50.211 50.211 0 0 1 29.772 99.2c.208-13.886 27.772-21.524 41.658-21.524s41.45 7.637 41.658 21.524a50.211 50.211 0 0 1-41.658 22.218m0-98.592A20.829 20.829 0 1 1 50.6 43.658a20.829 20.829 0 0 1 20.831-20.829m0-20.829a69.431 69.431 0 1 0 69.431 69.431A69.431 69.431 0 0 0 71.431 2z" transform="translate(-2 -2)" style="fill:#D9D9D9"/>
</svg>
