<svg xmlns="http://www.w3.org/2000/svg" width="205.245" height="203.702" viewBox="0 0 205.245 203.702">
    <defs>
        <style>
            .prefix__cls-1{fill:#102f43}.prefix__cls-1,.prefix__cls-2,.prefix__cls-3,.prefix__cls-5,.prefix__cls-6{stroke:#103146}.prefix__cls-2{fill:#0dd9ab}.prefix__cls-3{fill:#bef4e5}.prefix__cls-5{fill:#103146}.prefix__cls-6{fill:#0ddda8}.prefix__cls-10{stroke:none}.prefix__cls-11{fill:none}
        </style>
    </defs>
    <g id="prefix__Group_2691" data-name="Group 2691" transform="rotate(-16 -793.628 976.153)">
        <g id="prefix__Group_2680" data-name="Group 2680" transform="translate(211.309 378.205)">
            <g id="prefix__Group_2716" data-name="Group 2716" transform="translate(-13.465 3.421)">
                <path id="prefix__Path_1643" d="M229.944 373.258l1.32-11.019-18.834.907 25.407-14.669 17.514 10.112z" class="prefix__cls-1" data-name="Path 1643" transform="translate(-205.246 -310.671)"/>
                <path id="prefix__Path_1644" d="M245.793 384.678l1.32-11.019-18.834.907 25.406-14.666 17.515 10.11z" class="prefix__cls-1" data-name="Path 1644" transform="translate(-189.48 -299.311)"/>
                <path id="prefix__Path_1645" d="M294.005 382.668l-1.32-11.019 18.834.907-25.407-14.669L268.6 368z" class="prefix__cls-1" data-name="Path 1645" transform="translate(-149.371 -301.311)"/>
                <path id="prefix__Path_1646" d="M307.756 354.031l-1.32-11.019 18.834.907-25.407-14.669-17.514 10.112z" class="prefix__cls-1" data-name="Path 1646" transform="translate(-135.692 -329.799)"/>
                <path id="prefix__Path_1647" d="M309.475 345.754l-1.32 11.019 18.834-.907-25.407 14.669-17.514-10.112z" class="prefix__cls-1" data-name="Path 1647" transform="translate(-133.982 -313.381)"/>
                <path id="prefix__Path_1648" d="M228.823 329.851l1.32 11.019-18.834-.907 25.407 14.669 17.514-10.112z" class="prefix__cls-1" data-name="Path 1648" transform="translate(-206.361 -329.201)"/>
                <path id="prefix__Path_1649" d="M274.73 380.9l-10.257-6.324-9.967 6.324v-15.752h20.224z" class="prefix__cls-1" data-name="Path 1649" transform="translate(-163.389 -294.088)"/>
            </g>
            <path id="prefix__Path_1594" d="M229.944 373.258l1.32-11.019-18.834.907 25.407-14.669 17.514 10.112z" class="prefix__cls-2" data-name="Path 1594" transform="translate(-210.193 -307.929)"/>
            <path id="prefix__Path_1595" d="M245.793 384.678l1.32-11.019-18.834.907 25.406-14.666 17.515 10.11z" class="prefix__cls-3" data-name="Path 1595" transform="translate(-194.427 -296.569)"/>
            <path id="prefix__Path_1596" d="M294.005 382.668l-1.32-11.019 18.834.907-25.407-14.669L268.6 368z" class="prefix__cls-3" data-name="Path 1596" transform="translate(-154.318 -298.568)"/>
            <path id="prefix__Path_1597" d="M307.756 354.031l-1.32-11.019 18.834.907-25.407-14.669-17.514 10.112z" class="prefix__cls-3" data-name="Path 1597" transform="translate(-140.639 -327.056)"/>
            <path id="prefix__Path_1598" d="M309.475 345.754l-1.32 11.019 18.834-.907-25.407 14.669-17.514-10.112z" class="prefix__cls-2" data-name="Path 1598" transform="translate(-138.929 -310.639)"/>
            <path id="prefix__Path_1599" d="M228.823 329.851l1.32 11.019-18.834-.907 25.407 14.669 17.514-10.112z" class="prefix__cls-3" data-name="Path 1599" transform="translate(-211.309 -326.459)"/>
            <path id="prefix__Path_1600" d="M274.73 380.9l-10.257-6.324-9.967 6.324v-15.752h20.224z" class="prefix__cls-2" data-name="Path 1600" transform="translate(-168.337 -291.346)"/>
            <g id="prefix__Group_2679" data-name="Group 2679" transform="translate(23.671)">
                <g id="prefix__Group_2678" data-name="Group 2678">
                    <path id="prefix__Path_1601" d="M314.292 406.163a3.721 3.721 0 0 1-1.051-.156 8.334 8.334 0 0 1-1.975-1.007c-.217-.136-.433-.273-.652-.4-3.293-1.909-7.335-1.763-11.241-1.622-1.394.052-2.835.1-4.231.064-.838-.024-1.684-.084-2.5-.142l-.393-.028c-1.466-.1-2.96-.112-4.407-.12-.832-.006-1.664-.01-2.5-.032a71.208 71.208 0 0 1-7.187-.553 14.153 14.153 0 0 1-6.11-2.366c-.243-.164-.491-.317-.74-.475-.371-.231-.742-.465-1.1-.72l-.116-.082c-.756-.541-1.538-1.1-2.342-1.58a56.671 56.671 0 0 0-10.618-5.37c-2.906-.983-7.259-1.877-11.494-.529a28.4 28.4 0 0 0-6.309 3.275l-.706.445c-2.727 1.7-5.555 3.317-8.408 4.8-1.684.872-3.972 1.3-4.877-.357-.62-1.139-.114-2.561 1.43-4.005a64.047 64.047 0 0 1 11.963-8.823c.361-.205.73-.409 1.105-.616a16.844 16.844 0 0 0 5.063-3.656 2.145 2.145 0 0 0 .672-1.6c-.138-.72-1.167-1.295-2.256-1.9-.423-.237-.864-.483-1.277-.752-2.26-1.472-4.61-2.858-6.988-4.121-.387-.207-.776-.409-1.167-.612a30.62 30.62 0 0 1-7.1-4.594c-2.168-2.057-4.213-5.534-3.449-9.122.545-2.565 2.46-4.917 5.693-6.99a59.457 59.457 0 0 1 8.115-4.091 20.728 20.728 0 0 0 6.2-3.631 10.183 10.183 0 0 0 2.994-8.45l1.039-.13a11.255 11.255 0 0 1-3.309 9.334 21.662 21.662 0 0 1-6.455 3.814 58.623 58.623 0 0 0-8.008 4.037c-2.988 1.917-4.75 4.043-5.236 6.325-.672 3.166 1.185 6.284 3.148 8.147a29.929 29.929 0 0 0 6.864 4.424q.589.305 1.173.616c2.4 1.277 4.783 2.679 7.068 4.167.385.251.808.487 1.217.716 1.309.73 2.545 1.422 2.773 2.621a3.034 3.034 0 0 1-.892 2.46 17.639 17.639 0 0 1-5.366 3.91c-.369.2-.736.4-1.091.608a62.938 62.938 0 0 0-11.767 8.677c-.541.507-1.745 1.789-1.227 2.741.58 1.065 2.46.457 3.479-.072 2.827-1.466 5.631-3.066 8.334-4.754l.7-.443a29.109 29.109 0 0 1 6.549-3.387c4.506-1.432 9.092-.5 12.146.535a57.261 57.261 0 0 1 10.82 5.462c.84.5 1.642 1.073 2.416 1.628l.114.082c.339.241.692.463 1.045.684.257.162.515.323.766.493a13.15 13.15 0 0 0 5.661 2.2 70.807 70.807 0 0 0 7.079.545c.828.022 1.654.026 2.478.032 1.462.008 2.974.018 4.472.122l.395.028c.806.056 1.64.116 2.456.138 1.362.04 2.787-.012 4.165-.062 4.053-.146 8.246-.3 11.8 1.761.231.134.457.275.684.419a7.313 7.313 0 0 0 1.724.892 1.886 1.886 0 0 0 2.037-.439c.644-.886-.187-2.266-.74-3.01-.71-.954-1.9-2.549-1.257-4.111a4.176 4.176 0 0 1 1.889-1.819c.979-.588 1.955-1.185 2.93-1.781 1.921-1.175 3.908-2.388 5.9-3.521.4-.229.808-.469 1.219-.714 2.142-1.273 4.359-2.589 6.908-2.717a12.567 12.567 0 0 1 5.182 1.089 69.211 69.211 0 0 1 8.228 4.125 63.017 63.017 0 0 0 8.831 4.341c1.622.6 7.081 2.212 9.242-1.971 1.259-2.438.05-4.139-2.156-5.946a36.042 36.042 0 0 0-6.349-3.866l-7.161-3.712a16.12 16.12 0 0 1-3.83-2.476 4.159 4.159 0 0 1-1.442-3.513c.319-3.3 4.522-6.315 6.316-7.458a13.033 13.033 0 0 0 5.328-6.278 7.4 7.4 0 0 0-.162-5.869 13.627 13.627 0 0 0-7.4-6.9c-2.535-.977-7.8-3-6.557-7.006a6.913 6.913 0 0 1 3.1-3.529c1.512-.966 3.088-1.871 4.612-2.745.828-.477 1.656-.951 2.476-1.438a60.666 60.666 0 0 1 7.674-3.968c3.808-1.576 6.842-1.991 9.547-1.309l-.255 1.013c-2.477-.626-5.3-.225-8.891 1.261a59.934 59.934 0 0 0-7.54 3.9c-.826.489-1.658.968-2.49 1.444-1.512.87-3.078 1.769-4.568 2.721a5.718 5.718 0 0 0-2.667 2.956c-.952 3.068 3.523 4.792 5.926 5.717a14.526 14.526 0 0 1 7.991 7.468 8.415 8.415 0 0 1 .164 6.685 14.009 14.009 0 0 1-5.729 6.754c-1.3.828-5.553 3.754-5.837 6.679a3.126 3.126 0 0 0 1.123 2.653 15.29 15.29 0 0 0 3.591 2.306l7.159 3.71a36.855 36.855 0 0 1 6.533 3.988c2.138 1.751 4.1 3.982 2.422 7.233-1.721 3.337-5.659 4.263-10.53 2.476a63.76 63.76 0 0 1-8.98-4.41 68.665 68.665 0 0 0-8.1-4.067 11.5 11.5 0 0 0-4.746-1.017c-2.288.118-4.392 1.366-6.425 2.573-.417.247-.828.493-1.237.724-1.977 1.123-3.956 2.334-5.869 3.5-.979.6-1.957 1.2-2.938 1.785a3.256 3.256 0 0 0-1.46 1.322c-.383.936.347 2.039 1.127 3.088 1.253 1.684 1.518 3.192.75 4.249a2.561 2.561 0 0 1-2.144.978z" data-name="Path 1601" transform="translate(-223.175 -328.15)" style="fill:#dcd6c8;stroke:#0ccb9b"/>
                </g>
            </g>
        </g>
        <g id="prefix__Group_2690" data-name="Group 2690" transform="translate(255.562 277.833)">
            <g id="prefix__Group_2688" data-name="Group 2688" transform="translate(0 20.518)">
                <path id="prefix__Path_1642" d="M327.882 390.493h.014l-44.043-101.655-4.773-.142-44.121 101.59c-4.013 9.158.213 19.3 12.681 26.493 18.789 10.85 49.157 10.9 67.83.124 12.37-7.142 16.495-17.247 12.412-26.41z" class="prefix__cls-5" data-name="Path 1642" transform="translate(-239.953 -283.156)"/>
                <path id="prefix__Path_1602" d="M327.882 390.493h.014l-44.043-101.655-4.773-.142-44.121 101.59c-4.013 9.158.213 19.3 12.681 26.493 18.789 10.85 49.157 10.9 67.83.124 12.37-7.142 16.495-17.247 12.412-26.41z" class="prefix__cls-3" data-name="Path 1602" transform="translate(-233.493 -287.545)"/>
                <g id="prefix__Group_2687" data-name="Group 2687" transform="translate(.441 17.458)">
                    <g id="prefix__Group_2686" data-name="Group 2686">
                        <g id="prefix__Group_2681" data-name="Group 2681" transform="translate(31.376)">
                            <path id="prefix__Path_1603" d="M278.1 304.054c-8.027 5.649-19.142 8.913-28.661 8.222l3.319-7.644a48.034 48.034 0 0 0 22.224-7.762z" class="prefix__cls-6" data-name="Path 1603" transform="translate(-249.443 -296.871)"/>
                        </g>
                        <g id="prefix__Group_2682" data-name="Group 2682" transform="translate(21.214 18.382)">
                            <path id="prefix__Path_1604" d="M291.763 314.719c-10.941 10-29.708 15.621-43.829 12.735a29.172 29.172 0 0 1-3.585-.956l3.383-7.79c13.431 1.618 30.021-3.632 40.292-12.623z" class="prefix__cls-6" data-name="Path 1604" transform="translate(-244.349 -306.086)"/>
                        </g>
                        <g id="prefix__Group_2683" data-name="Group 2683" transform="translate(11.779 36.263)">
                            <path id="prefix__Path_1605" d="M304.83 325.092c-.056.07-.112.132-.176.2-12.148 13.7-36.624 21.821-54.673 18.133a28.387 28.387 0 0 1-10.363-4.107l3.305-7.616a33.371 33.371 0 0 0 3.439.88c17.789 3.641 41.8-4.185 54.114-17.532z" class="prefix__cls-6" data-name="Path 1605" transform="translate(-239.619 -315.05)"/>
                        </g>
                        <g id="prefix__Group_2684" data-name="Group 2684" transform="translate(3.034 53.739)">
                            <path id="prefix__Path_1606" d="M317.35 335.219a40.517 40.517 0 0 1-2.789 3.523c-13.969 15.767-42.122 25.1-62.867 20.849-7.61-1.548-13.16-4.714-16.459-8.863l2.95-6.792a35.4 35.4 0 0 0 9.338 3.188c20.768 4.247 48.9-5.085 62.867-20.845q1.089-1.233 2.023-2.467z" class="prefix__cls-6" data-name="Path 1606" transform="translate(-235.235 -323.811)"/>
                        </g>
                        <g id="prefix__Group_2685" data-name="Group 2685" transform="translate(0 70.839)">
                            <path id="prefix__Path_1607" d="M326.848 345.11a41.43 41.43 0 0 1-5.23 7.273c-15 16.932-44.478 27.3-67.505 24.165a51.637 51.637 0 0 1-6.695-3.23c-7.768-4.484-12.336-10.112-13.7-15.934a39 39 0 0 0 12.128 4.47c23.473 4.8 55.273-5.747 71.068-23.564a42.106 42.106 0 0 0 4.42-5.907z" class="prefix__cls-6" data-name="Path 1607" transform="translate(-233.714 -332.383)"/>
                        </g>
                    </g>
                </g>
                <path id="prefix__Path_1608" d="M308.382 388.735c-18.655 10.768-48.962 10.726-67.763-.084a140.832 140.832 0 0 0 49.694-47.294c4.722-7.526 8.745-15.677 10.866-24.346l19.631 45.307-.014.008c4.078 9.162-.043 19.268-12.414 26.409z" data-name="Path 1608" transform="translate(-226.404 -259.378)" style="isolation:isolate;fill:#ebebeb;mix-blend-mode:multiply"/>
                <path id="prefix__Path_1609" d="M279.9 303.362c-.173.489-.355.956-.537 1.416-6.842 17.275-19.776 31.667-35.573 41.571l25.045-57.649 4.77.138z" data-name="Path 1609" transform="translate(-223.247 -287.543)" style="fill:#96a63a;mix-blend-mode:screen;isolation:isolate;stroke:#103146"/>
                <path id="prefix__Path_1610" d="M260.443 290.5a3.77 3.77 0 0 1-3.407-.006 1.038 1.038 0 0 1-.01-1.967 3.763 3.763 0 0 1 3.407.006 1.038 1.038 0 0 1 .01 1.967z" data-name="Path 1610" transform="translate(-210.779 -288.119)" style="fill:#edff86;stroke:#103146"/>
            </g>
            <g id="prefix__Ellipse_116" class="prefix__cls-5" data-name="Ellipse 116" transform="translate(34.666 .501)">
                <circle cx="12" cy="12" r="12" class="prefix__cls-10"/>
                <circle cx="12" cy="12" r="11.5" class="prefix__cls-11"/>
            </g>
            <g id="prefix__Ellipse_117" class="prefix__cls-6" data-name="Ellipse 117" transform="translate(36.999 3.25)">
                <circle cx="12" cy="12" r="12" class="prefix__cls-10"/>
                <circle cx="12" cy="12" r="11.5" class="prefix__cls-11"/>
            </g>
        </g>
    </g>
</svg>
