<svg xmlns="http://www.w3.org/2000/svg" width="168.793" height="105.491" viewBox="0 0 168.793 105.491">
  <defs>
    <style>
      .cls-1 {
        fill: #02ffbb;
        stroke: #103146;
      }

      .cls-2 {
        fill: #103146;
      }
    </style>
  </defs>
  <g id="Component_79_1" data-name="Component 79 – 1" transform="translate(0.5 0.5)">
    <g id="Group_2695" data-name="Group 2695" transform="translate(72.242)">
      <path id="Path_1630" data-name="Path 1630" class="cls-1" d="M490.57,218.624l-8.99-5.19L514.724,194.3c1.565-.9,1.565-2.375,0-3.278l-33.859-19.549a6.281,6.281,0,0,0-5.678,0l-33.144,19.136-8.989-5.19L466.2,166.282c6.522-3.765,17.134-3.765,23.656,0l33.859,19.549c6.522,3.765,6.522,9.893,0,13.658Z" transform="translate(-433.054 -163.458)"/>
    </g>
    <g id="Group_2696" data-name="Group 2696" transform="translate(0 9.532)">
      <path id="Path_1631" data-name="Path 1631" class="cls-1" d="M483.425,223.837c0-4.806-2.922-10.388-6.526-12.47l-60.05-34.67a4.19,4.19,0,0,0-4.228-.361l0,0L340.918,218l69.336,52.247,70.638-41a3.274,3.274,0,0,0,.624-.362h0C482.7,227.99,483.425,226.237,483.425,223.837Z" transform="translate(-339.162 -175.917)"/>
      <path id="Path_1632" data-name="Path 1632" class="cls-2" d="M428.752,282.83l70.638-41a3.268,3.268,0,0,0,.624-.362h0c1.179-.894,1.909-2.646,1.909-5.047a16.009,16.009,0,0,0-1.759-6.945l-80.521,46.489Z" transform="translate(-357.661 -188.502)"/>
      <path id="Path_1633" data-name="Path 1633" class="cls-1" d="M405.2,282.74l-60.051-34.67c-3.6-2.081-6.526-7.664-6.526-12.469h0c0-4.806,2.922-7.014,6.526-4.934l60.051,34.67c3.6,2.081,6.526,7.663,6.526,12.469h0C411.725,282.613,408.8,284.821,405.2,282.74Z" transform="translate(-338.623 -188.598)"/>
    </g>
    <path id="Path_1634" data-name="Path 1634" class="cls-2" d="M411.274,281.3l-7.22-4.165a3.115,3.115,0,0,1-1.3-2.486h0c0-.958.583-1.4,1.3-.983l7.22,4.165a3.115,3.115,0,0,1,1.3,2.486h0C412.574,281.273,411.992,281.713,411.274,281.3Z" transform="translate(-353.692 -189.317)"/>
  </g>
</svg>
