<svg xmlns="http://www.w3.org/2000/svg" width="18" height="9" viewBox="0 0 18 9">
    <path id="prefix__domino-mask" d="M15.83 9.81a2.139 2.139 0 0 0-2.37 1.69c0 .34 1.35.79 2.59.79a3.037 3.037 0 0 0 2.36-1.01 2.789 2.789 0 0 0-2.58-1.47m-7.65 0c-1.8.12-2.59 1.13-2.59 1.46a3.23 3.23 0 0 0 2.36 1.02c1.13 0 2.59-.45 2.59-.79a2.2 2.2 0 0 0-2.36-1.69M16.95 16c-1.91 0-3.15-2.25-4.95-2.25S8.85 16 7.05 16C4.69 16 3 13.86 3 10.04 3 7.68 3.68 7 6.71 7S10.54 8.24 12 8.24 14.36 7 17.29 7 21 7.79 21 10.04c0 3.82-1.69 5.96-4.05 5.96z" transform="translate(-3 -7)" style="fill:#ff7165"/>
</svg>
