<svg xmlns="http://www.w3.org/2000/svg" width="240.807" height="201.644" viewBox="0 0 240.807 201.644">
    <defs>
        <style>
            .prefix__cls-1{fill:#5793ce}.prefix__cls-4{fill:#103146}.prefix__cls-5{fill:#02ffbb}.prefix__cls-6{fill:#d3d0cf}.prefix__cls-7{fill:#f2f2f2}
        </style>
    </defs>
    <g id="prefix__Group_2701" data-name="Group 2701" transform="translate(-100.435 -208.894)">
        <g id="prefix__Group_2700" data-name="Group 2700" transform="translate(93 150.884)">
            <g id="prefix__Group_2668" data-name="Group 2668" transform="rotate(73 110.843 149.796)">
                <path id="prefix__Path_1587" d="M11.216 3.658A59.217 59.217 0 0 1 2.992.624c-7.776-3.64 2.061 9.846 2.061 9.846s2.647 1.056 6.163 2.13z" class="prefix__cls-1" data-name="Path 1587" transform="translate(69.256 171.362)"/>
                <g id="prefix__Group_2667" data-name="Group 2667">
                    <g id="prefix__Group_2666" data-name="Group 2666">
                        <path id="prefix__Path_1586" d="M12.625 3.255A84.318 84.318 0 0 1 0 0v8.921a69.265 69.265 0 0 0 12.471 3.2c13.311 1.755.154-8.866.154-8.866z" data-name="Path 1586" transform="translate(77.117 173.945)" style="fill:#396caa"/>
                        <path id="prefix__Path_1585" d="M0 1.809a61.008 61.008 0 0 0 15.087 5.917A80.3 80.3 0 0 0 27.076 9.8c15.951 1.548 32.973-1.3 45.244-8.5L14.183 0z" data-name="Path 1585" transform="translate(68.261 168.049)" style="fill:#59bdef"/>
                        <g id="prefix__Group_2665" data-name="Group 2665">
                            <path id="prefix__Path_1573" d="M0 58.069L24.542 72.01l25.042-14.693-.067-6.391-.214.125-.02-.452 11.137-.078-.066-6.293 10.921-.076-.065-6.293 10.921-.076-.065-6.293 10.921-.076-.065-6.293 11.675-.082 3.628-2.128 4-16.519L112.164 0l-1.932 6.125-17.674-2.361z" class="prefix__cls-4" data-name="Path 1573" transform="translate(112.732 80.268)"/>
                            <g id="prefix__Group_2664" data-name="Group 2664">
                                <g id="prefix__Group_2663" data-name="Group 2663">
                                    <g id="prefix__Group_2658" data-name="Group 2658">
                                        <g id="prefix__Group_2644" data-name="Group 2644" transform="translate(112.665 77.641)">
                                            <g id="prefix__Group_2643" data-name="Group 2643">
                                                <path id="prefix__Path_1574" d="M24.542 68.246l25.042-14.692-.3-6.717 11.137-.078-.281-6.291 11.137-.078L71 34.1l11.137-.078-.281-6.291 11.137-.078-.281-6.291 11.891-.083 3.628-2.128 4-16.519L92.557 0 0 54.305z" class="prefix__cls-5" data-name="Path 1574"/>
                                            </g>
                                        </g>
                                        <g id="prefix__Group_2646" data-name="Group 2646" transform="translate(112.666 121.334)">
                                            <g id="prefix__Group_2645" data-name="Group 2645">
                                                <path id="prefix__Path_1575" d="M41.217 14.769a34.479 34.479 0 0 0-11.374-9.8A58.7 58.7 0 0 0 18.088 0L0 10.613l24.542 13.941z" class="prefix__cls-4" data-name="Path 1575"/>
                                            </g>
                                        </g>
                                        <g id="prefix__Group_2648" data-name="Group 2648" transform="translate(143.391 79.827)">
                                            <g id="prefix__Group_2647" data-name="Group 2647">
                                                <path id="prefix__Path_1576" d="M80.833 3.213L81.5.441 78.2 0 0 45.884l4.119 2.339z" class="prefix__cls-4" data-name="Path 1576"/>
                                            </g>
                                        </g>
                                        <g id="prefix__Group_2650" data-name="Group 2650" transform="translate(53.143 149.414)">
                                            <g id="prefix__Group_2649" data-name="Group 2649">
                                                <path id="prefix__Path_1577" d="M.27 9.085L0 0l2.909 6.136z" class="prefix__cls-6" data-name="Path 1577"/>
                                            </g>
                                        </g>
                                        <path id="prefix__Path_1578" d="M15.124 50.657c20.053 11.391 52.43 11.164 72.32-.507 9.972-5.85 14.909-13.466 14.828-21.043L102 19.486l-1.634 1.82c-2.309-4.745-6.7-9.213-13.211-12.909C67.1-2.994 34.72-2.767 14.832 8.9s-19.759 30.366.292 41.757zm28.966-17c5.22 2.966 5.253 7.833.076 10.87s-13.608 3.1-18.827.132-5.255-7.833-.076-10.87 13.606-3.089 18.827-.128z" class="prefix__cls-4" data-name="Path 1578" transform="translate(53.408 128.284)"/>
                                        <g id="prefix__Group_2652" data-name="Group 2652" transform="translate(53.137 119.203)">
                                            <g id="prefix__Group_2651" data-name="Group 2651">
                                                <path id="prefix__Path_1579" d="M15.124 50.656c20.051 11.391 52.43 11.165 72.32-.505S107.2 19.786 87.152 8.4 34.72-2.768 14.831 8.9s-19.758 30.367.293 41.756zM44.09 33.662c5.22 2.966 5.253 7.833.076 10.87s-13.608 3.1-18.827.132-5.255-7.833-.076-10.87 13.606-3.094 18.827-.132z" class="prefix__cls-7" data-name="Path 1579"/>
                                            </g>
                                        </g>
                                        <path id="prefix__Path_1580" d="M38.1 27.692c-4.41.689-9.291.087-12.763-1.885-3.744-2.127-4.806-5.229-3.2-7.936l-9.084-7.2S8.3 5.311 3.595 0C-3.719 10.692.13 23.283 15.118 31.8c6.612 3.756 14.022 5.889 22.425 7.125z" class="prefix__cls-1" data-name="Path 1580" transform="translate(53.415 147.141)"/>
                                        <g id="prefix__Group_2654" data-name="Group 2654" transform="translate(53.137 119.203)">
                                            <g id="prefix__Group_2653" data-name="Group 2653">
                                                <path id="prefix__Path_1581" d="M15.124 50.656a61.008 61.008 0 0 0 15.087 5.917A80.3 80.3 0 0 0 42.2 58.642c15.951 1.552 32.974-1.292 45.244-8.492 19.89-11.668 19.756-30.364-.292-41.75S34.72-2.768 14.831 8.9s-19.758 30.367.293 41.756zM44.09 33.662c5.22 2.966 5.253 7.833.076 10.87s-13.608 3.1-18.827.132-5.255-7.833-.076-10.87 13.606-3.094 18.827-.132z" class="prefix__cls-5" data-name="Path 1581"/>
                                            </g>
                                        </g>
                                        <g id="prefix__Group_2657" data-name="Group 2657" transform="translate(58.787 122.46)">
                                            <g id="prefix__Group_2656" data-name="Group 2656">
                                                <g id="prefix__Group_2655" data-name="Group 2655">
                                                    <path id="prefix__Path_1582" d="M0 26.71c.975-5.819 5.29-11.5 12.972-16.012C30.669.317 59.478.114 77.317 10.249c8.866 5.036 13.344 11.677 13.445 18.357 1.272-7.586-3.138-15.4-13.233-21.136-17.84-10.134-46.647-9.933-64.342.45C4.284 13.144-.1 19.948 0 26.71z" class="prefix__cls-4" data-name="Path 1582"/>
                                                </g>
                                            </g>
                                        </g>
                                        <g id="prefix__Group_2677" data-name="Group 2677" transform="rotate(-58 131.454 72.858)">
                                            <g id="prefix__Group_2667-2" data-name="Group 2667">
                                                <g id="prefix__Group_2666-2" data-name="Group 2666">
                                                    <g id="prefix__Group_2665-2" data-name="Group 2665">
                                                        <path id="prefix__Path_1573-2" d="M0 58.069L24.542 72.01l25.042-14.693-.067-6.391-.214.125-.02-.452 11.137-.078-.066-6.293 10.921-.076-.065-6.293 10.921-.076-.065-6.293 10.921-.076-.065-6.293 11.675-.082 3.628-2.128 4-16.519L112.164 0l-1.932 6.125-17.674-2.361z" class="prefix__cls-4" data-name="Path 1573" transform="translate(59.595 2.628)"/>
                                                        <g id="prefix__Group_2664-2" data-name="Group 2664">
                                                            <g id="prefix__Group_2663-2" data-name="Group 2663">
                                                                <g id="prefix__Group_2658-2" data-name="Group 2658">
                                                                    <g id="prefix__Group_2644-2" data-name="Group 2644" transform="translate(59.528)">
                                                                        <g id="prefix__Group_2643-2" data-name="Group 2643">
                                                                            <path id="prefix__Path_1574-2" d="M24.542 68.246l25.042-14.692-.3-6.717 11.137-.078-.281-6.291 11.137-.078L71 34.1l11.137-.078-.281-6.291 11.137-.078-.281-6.291 11.891-.083 3.628-2.128 4-16.519L92.557 0 0 54.305z" class="prefix__cls-5" data-name="Path 1574"/>
                                                                        </g>
                                                                    </g>
                                                                    <g id="prefix__Group_2646-2" data-name="Group 2646" transform="translate(59.529 43.693)">
                                                                        <g id="prefix__Group_2645-2" data-name="Group 2645">
                                                                            <path id="prefix__Path_1575-2" d="M41.217 14.769a34.479 34.479 0 0 0-11.374-9.8A58.7 58.7 0 0 0 18.088 0L0 10.613l24.542 13.941z" class="prefix__cls-4" data-name="Path 1575"/>
                                                                        </g>
                                                                    </g>
                                                                    <g id="prefix__Group_2648-2" data-name="Group 2648" transform="translate(90.254 2.187)">
                                                                        <g id="prefix__Group_2647-2" data-name="Group 2647">
                                                                            <path id="prefix__Path_1576-2" d="M80.833 3.213L81.5.441 78.2 0 0 45.884l4.119 2.339z" class="prefix__cls-4" data-name="Path 1576"/>
                                                                        </g>
                                                                    </g>
                                                                    <g id="prefix__Group_2650-2" data-name="Group 2650" transform="translate(.006 71.773)">
                                                                        <g id="prefix__Group_2649-2" data-name="Group 2649">
                                                                            <path id="prefix__Path_1577-2" d="M.27 9.085L0 0l2.909 6.136z" class="prefix__cls-6" data-name="Path 1577"/>
                                                                        </g>
                                                                    </g>
                                                                    <path id="prefix__Path_1578-2" d="M15.124 50.657c20.053 11.391 52.43 11.164 72.32-.507 9.972-5.85 14.909-13.466 14.828-21.043L102 19.486l-1.634 1.82c-2.309-4.745-6.7-9.213-13.211-12.909C67.1-2.994 34.72-2.767 14.832 8.9s-19.759 30.366.292 41.757zm28.966-17c5.22 2.966 5.253 7.833.076 10.87s-13.608 3.1-18.827.132-5.255-7.833-.076-10.87 13.606-3.089 18.827-.128z" class="prefix__cls-4" data-name="Path 1578" transform="translate(.271 50.643)"/>
                                                                    <g id="prefix__Group_2652-2" data-name="Group 2652" transform="translate(0 41.562)">
                                                                        <g id="prefix__Group_2651-2" data-name="Group 2651">
                                                                            <path id="prefix__Path_1579-2" d="M15.124 50.656c20.051 11.391 52.43 11.165 72.32-.505S107.2 19.786 87.152 8.4 34.72-2.768 14.831 8.9s-19.758 30.367.293 41.756zM44.09 33.662c5.22 2.966 5.253 7.833.076 10.87s-13.608 3.1-18.827.132-5.255-7.833-.076-10.87 13.606-3.094 18.827-.132z" class="prefix__cls-7" data-name="Path 1579"/>
                                                                        </g>
                                                                    </g>
                                                                    <path id="prefix__Path_1580-2" d="M38.1 27.692c-4.41.689-9.291.087-12.763-1.885-3.744-2.127-4.806-5.229-3.2-7.936l-9.084-7.2S8.3 5.311 3.595 0C-3.719 10.692.13 23.283 15.118 31.8c6.612 3.756 14.022 5.889 22.425 7.125z" class="prefix__cls-4" data-name="Path 1580" transform="translate(.278 69.501)"/>
                                                                    <g id="prefix__Group_2654-2" data-name="Group 2654" transform="translate(0 41.562)">
                                                                        <g id="prefix__Group_2653-2" data-name="Group 2653">
                                                                            <path id="prefix__Path_1581-2" d="M15.124 50.656a61.008 61.008 0 0 0 15.087 5.917A80.3 80.3 0 0 0 42.2 58.642c15.951 1.552 32.974-1.292 45.244-8.492 19.89-11.668 19.756-30.364-.292-41.75S34.72-2.768 14.831 8.9s-19.758 30.367.293 41.756zM44.09 33.662c5.22 2.966 5.253 7.833.076 10.87s-13.608 3.1-18.827.132-5.255-7.833-.076-10.87 13.606-3.094 18.827-.132z" class="prefix__cls-5" data-name="Path 1581"/>
                                                                        </g>
                                                                    </g>
                                                                    <g id="prefix__Group_2657-2" data-name="Group 2657" transform="translate(5.65 44.819)">
                                                                        <g id="prefix__Group_2656-2" data-name="Group 2656">
                                                                            <g id="prefix__Group_2655-2" data-name="Group 2655">
                                                                                <path id="prefix__Path_1582-2" d="M0 26.71c.975-5.819 5.29-11.5 12.972-16.012C30.669.317 59.478.114 77.317 10.249c8.866 5.036 13.344 11.677 13.445 18.357 1.272-7.586-3.138-15.4-13.233-21.136-17.84-10.134-46.647-9.933-64.342.45C4.284 13.144-.1 19.948 0 26.71z" class="prefix__cls-4" data-name="Path 1582"/>
                                                                            </g>
                                                                        </g>
                                                                    </g>
                                                                </g>
                                                            </g>
                                                        </g>
                                                    </g>
                                                    <path id="prefix__Path_1584" d="M2.5 7.095l14.274 3.5L18.827 0C13.649 3.037 5.22 3.1 0 .132z" class="prefix__cls-5" data-name="Path 1584" transform="translate(25.339 86.094)"/>
                                                    <path id="prefix__Path_1585-2" d="M0 1.809a61.008 61.008 0 0 0 15.087 5.917A80.3 80.3 0 0 0 27.076 9.8c15.951 1.548 32.973-1.3 45.244-8.5L14.183 0z" class="prefix__cls-5" data-name="Path 1585" transform="translate(15.124 90.409)"/>
                                                    <path id="prefix__Path_1586-2" d="M12.625 3.255A84.318 84.318 0 0 1 0 0v8.921a69.265 69.265 0 0 0 12.471 3.2c13.311 1.755.154-8.866.154-8.866z" class="prefix__cls-4" data-name="Path 1586" transform="translate(23.98 96.304)"/>
                                                </g>
                                            </g>
                                            <path id="prefix__Path_1587-2" d="M11.216 3.658A59.217 59.217 0 0 1 2.992.624c-7.776-3.64 2.061 9.846 2.061 9.846s2.647 1.056 6.163 2.13z" class="prefix__cls-4" data-name="Path 1587" transform="translate(16.119 93.722)"/>
                                        </g>
                                    </g>
                                    <g id="prefix__Group_2662" data-name="Group 2662" transform="translate(25.433 147.594)">
                                        <g id="prefix__Group_2661" data-name="Group 2661">
                                            <g id="prefix__Group_2660" data-name="Group 2660">
                                                <g id="prefix__Group_2659" data-name="Group 2659">
                                                    <path id="prefix__Path_1583" d="M21.292 84.22a20.073 20.073 0 0 1-10.035-2.59C4.073 77.553.074 69.359 0 58.556c-.14-19.7 13.574-43.846 30.571-53.819 9.312-5.465 18.4-6.229 25.581-2.146a20.09 20.09 0 0 1 7.44 7.44c2.493 4.247 3.776 9.508 3.818 15.636.14 19.7-13.576 43.847-30.573 53.819-5.364 3.147-10.652 4.734-15.545 4.734zM46.1 7.244a23.95 23.95 0 0 0-11.87 3.729C19.218 19.779 7.106 41.1 7.229 58.507c.055 8.11 2.753 14.089 7.6 16.839s11.359 2.007 18.353-2.094c15.012-8.807 27.124-30.131 27-47.536a24.256 24.256 0 0 0-2.826-12.027A12.551 12.551 0 0 0 46.1 7.244z" class="prefix__cls-4" data-name="Path 1583"/>
                                                </g>
                                            </g>
                                        </g>
                                    </g>
                                </g>
                            </g>
                        </g>
                        <path id="prefix__Path_1584-2" d="M3.151 25.484c4.685 2.615 15.4-8.7 15.4-8.7L17.151 0s-1.494 5.356-3.359 6.893c-3.921 3.23-9.167 7.922-13.4 5.77 0 0-1.926 10.205 2.759 12.821z" class="prefix__cls-5" data-name="Path 1584" transform="translate(78.643 157.549)"/>
                    </g>
                </g>
            </g>
            <path id="prefix__Path_1593" d="M3.287 15.2s10.4-2.263 13.658-4.216 9.145-15.306.509-9.559S6.08 8.507 1.625 9.45s1.662 5.75 1.662 5.75z" class="prefix__cls-4" data-name="Path 1593" transform="rotate(73 -45.926 113.56)"/>
        </g>
    </g>
</svg>
