<?xml version="1.0" encoding="utf-8"?>
<!-- Generator: Adobe Illustrator 22.1.0, SVG Export Plug-In . SVG Version: 6.00 Build 0)  -->
<svg version="1.1" id="Layer_1" xmlns="http://www.w3.org/2000/svg" xmlns:xlink="http://www.w3.org/1999/xlink" x="0px" y="0px"
	 viewBox="0 0 18 9" style="enable-background:new 0 0 18 9;" xml:space="preserve">
<style type="text/css">
	.st0{fill:#FFFFFF;}
</style>
<path class="st0" d="M13.9,9C12,9,10.8,6.8,9,6.8C7.2,6.8,5.8,9,4,9C1.7,9,0,6.9,0,3c0-2.4,0.7-3,3.7-3c3,0,3.8,1.2,5.3,1.2
	c1.5,0,2.4-1.2,5.3-1.2C17.2,0,18,0.8,18,3C18,6.9,16.3,9,13.9,9z M5.2,2.8C3.4,2.9,2.6,3.9,2.6,4.3c0,0.2,1.2,1,2.4,1
	s2.6-0.4,2.6-0.8C7.3,3.4,6.2,2.7,5.2,2.8 M12.8,2.8c-1.1-0.1-2.1,0.6-2.4,1.7c0,0.3,1.3,0.8,2.6,0.8c1.2,0,2.4-0.8,2.4-1
	C15.4,4,14.6,2.9,12.8,2.8"/>
</svg>
