<?xml version="1.0" encoding="utf-8"?>
<!-- Generator: Adobe Illustrator 22.1.0, SVG Export Plug-In . SVG Version: 6.00 Build 0)  -->
<svg version="1.1" id="Layer_1" xmlns="http://www.w3.org/2000/svg" xmlns:xlink="http://www.w3.org/1999/xlink" x="0px" y="0px"
	 viewBox="0 0 20 20" style="enable-background:new 0 0 20 20;" xml:space="preserve">
<style type="text/css">
	.st0{fill:#FFFFFF;}
</style>
<path class="st0" d="M10,0C4.5,0,0,4.5,0,10c0,5.5,4.5,10,10,10c5.5,0,10-4.5,10-10C20,4.5,15.5,0,10,0L10,0z M10,18
	c-4.4,0-8-3.6-8-8c0-4.4,3.6-8,8-8c4.4,0,8,3.6,8,8C18,14.4,14.4,18,10,18 M13.5,9C14.3,9,15,8.3,15,7.5C15,6.7,14.3,6,13.5,6
	C12.7,6,12,6.7,12,7.5C12,8.3,12.7,9,13.5,9 M6.5,9C7.3,9,8,8.3,8,7.5C8,6.7,7.3,6,6.5,6C5.7,6,5,6.7,5,7.5C5,8.3,5.7,9,6.5,9
	 M10,15.5c2.3,0,4.3-1.5,5.1-3.5H4.9C5.7,14,7.7,15.5,10,15.5"/>
</svg>
