<svg xmlns="http://www.w3.org/2000/svg" width="100" height="100" viewBox="0 0 100 100">
    <g id="Group_3427" data-name="Group 3427" transform="translate(-16 -95)">
        <g id="Group_3159" data-name="Group 3159" transform="translate(16 95)">
            <circle id="Ellipse_159" cx="50" cy="50" r="50" fill="#ffd100" data-name="Ellipse 159"/>
        </g>
        <path id="auto-fix" fill="#103247" d="M18.59 11.74l-6.764 3.788 3.788-6.764L11.826 2l6.764 3.788L25.354 2l-3.788 6.764 3.788 6.764-6.764-3.788m32.467 26.514l6.764-3.788-3.788 6.764 3.788 6.764-6.764-3.788-6.764 3.788 3.788-6.764-3.788-6.764 6.764 3.788M57.821 2l-3.788 6.764 3.788 6.764-6.764-3.788-6.764 3.788 3.788-6.764L44.293 2l6.764 3.788L57.821 2m-23.43 29.166l6.6-6.6-5.736-5.736-6.6 6.6 5.736 5.736m2.787-14.853l6.331 6.331a2.694 2.694 0 0 1 0 3.815L11.935 58.032a2.694 2.694 0 0 1-3.815 0L1.789 51.7a2.694 2.694 0 0 1 0-3.815l31.573-31.573a2.694 2.694 0 0 1 3.815 0z" transform="translate(37.315 115.376)"/>
    </g>
</svg>
